solid BuffaloBot
facet normal -0.707106781187116 -0.707106781185979 -5.196795055405262e-16
  outer loop
    vertex 156.7557585014389 111.2873536125426 66.12464692335622
    vertex 156.98556820532434 111.05754390865678 62.01102625538016
    vertex 157.20137989612132 110.84173221785937 65.64107452430896
  endloop
endfacet
facet normal -0.707106781187116 -0.707106781185979 -5.196795055405262e-16
  outer loop
    vertex 156.98556820532434 111.05754390865678 62.01102625538016
    vertex 156.7557585014389 111.2873536125426 66.12464692335622
    vertex 156.92051419122967 111.12259792275155 62.709837677156955
  endloop
endfacet
facet normal -0.707106781187116 -0.707106781185979 -5.196795055405262e-16
  outer loop
    vertex 156.92051419122967 111.12259792275155 62.709837677156955
    vertex 156.7557585014389 111.2873536125426 66.12464692335622
    vertex 156.72978547249951 111.31332664148202 63.36102625538017
  endloop
endfacet
facet normal -0.707106781187116 -0.707106781185979 -5.196795055405262e-16
  outer loop
    vertex 156.72978547249951 111.31332664148202 63.36102625538017
    vertex 156.7557585014389 111.2873536125426 66.12464692335622
    vertex 155.94569023010953 112.09742188387325 66.59917393025324
  endloop
endfacet
facet normal -0.707106781187116 -0.707106781185979 -5.196795055405262e-16
  outer loop
    vertex 156.72978547249951 111.31332664148202 63.36102625538017
    vertex 155.94569023010953 112.09742188387325 66.59917393025324
    vertex 156.42637989612112 111.61673221786091 63.920214564583844
  endloop
endfacet
facet normal -0.707106781187116 -0.707106781185979 -5.196795055405262e-16
  outer loop
    vertex 156.42637989612112 111.61673221786091 63.920214564583844
    vertex 155.94569023010953 112.09742188387325 66.59917393025324
    vertex 156.03097405072324 112.0121380632594 64.34929484559818
  endloop
endfacet
facet normal -0.707106781187116 -0.707106781185979 -5.196795055405262e-16
  outer loop
    vertex 156.03097405072324 112.0121380632594 64.34929484559818
    vertex 155.94569023010953 112.09742188387325 66.59917393025324
    vertex 155.57051419123076 112.47259792275264 64.61902598636064
  endloop
endfacet
facet normal -0.707106781187116 -0.707106781185979 -5.196795055405262e-16
  outer loop
    vertex 155.57051419123076 112.47259792275264 64.61902598636064
    vertex 155.94569023010953 112.09742188387325 66.59917393025324
    vertex 155.07637989612218 112.966732217862 66.76102625538016
  endloop
endfacet
facet normal -0.707106781187116 -0.707106781185979 -5.196795055405262e-16
  outer loop
    vertex 155.57051419123076 112.47259792275264 64.61902598636064
    vertex 155.07637989612218 112.966732217862 66.76102625538016
    vertex 155.07637989612218 112.966732217862 64.71102625538018
  endloop
endfacet
facet normal -0.707106781187116 -0.707106781185979 -5.196795055405262e-16
  outer loop
    vertex 155.07637989612218 112.966732217862 64.71102625538018
    vertex 155.07637989612218 112.966732217862 66.76102625538016
    vertex 154.20706956213482 113.83604255185077 66.59917393025324
  endloop
endfacet
facet normal -0.707106781187116 -0.707106781185979 -5.196795055405262e-16
  outer loop
    vertex 155.07637989612218 112.966732217862 64.71102625538018
    vertex 154.20706956213482 113.83604255185077 66.59917393025324
    vertex 154.5822456010136 113.46086651297139 64.61902598636064
  endloop
endfacet
facet normal -0.707106781187116 -0.707106781185979 -5.196795055405262e-16
  outer loop
    vertex 154.5822456010136 113.46086651297139 64.61902598636064
    vertex 154.20706956213482 113.83604255185077 66.59917393025324
    vertex 154.1217857415211 113.92132637246462 64.34929484559818
  endloop
endfacet
facet normal -0.707106781187116 -0.707106781185979 -5.196795055405262e-16
  outer loop
    vertex 154.1217857415211 113.92132637246462 64.34929484559818
    vertex 154.20706956213482 113.83604255185077 66.59917393025324
    vertex 153.3970012908055 114.64611082318142 66.12464692335622
  endloop
endfacet
facet normal -0.707106781187116 -0.707106781185979 -5.196795055405262e-16
  outer loop
    vertex 154.1217857415211 113.92132637246462 64.34929484559818
    vertex 153.3970012908055 114.64611082318142 66.12464692335622
    vertex 153.72637989612326 114.3167322178631 63.920214564583844
  endloop
endfacet
facet normal -0.707106781187116 -0.707106781185979 -5.196795055405262e-16
  outer loop
    vertex 153.72637989612326 114.3167322178631 63.920214564583844
    vertex 153.3970012908055 114.64611082318142 66.12464692335622
    vertex 153.42297431974484 114.620137794242 63.36102625538017
  endloop
endfacet
facet normal -0.707106781187116 -0.707106781185979 -5.196795055405262e-16
  outer loop
    vertex 153.42297431974484 114.620137794242 63.36102625538017
    vertex 153.3970012908055 114.64611082318142 66.12464692335622
    vertex 153.23224560101465 114.8108665129725 62.709837677156955
  endloop
endfacet
facet normal -0.707106781187116 -0.707106781185979 -5.196795055405262e-16
  outer loop
    vertex 153.23224560101465 114.8108665129725 62.709837677156955
    vertex 153.3970012908055 114.64611082318142 66.12464692335622
    vertex 152.7013798961241 115.34173221786394 65.36978346601626
  endloop
endfacet
facet normal -0.707106781187116 -0.707106781185979 -5.196795055405262e-16
  outer loop
    vertex 153.23224560101465 114.8108665129725 62.709837677156955
    vertex 152.7013798961241 115.34173221786394 65.36978346601626
    vertex 153.16719158692004 114.87592052706724 62.01102625538016
  endloop
endfacet
facet normal -0.707106781187116 -0.707106781185979 -5.196795055405262e-16
  outer loop
    vertex 153.16719158692004 114.87592052706724 62.01102625538016
    vertex 152.7013798961241 115.34173221786394 65.36978346601626
    vertex 152.951379896123 115.09173221786459 58.38097798645131
  endloop
endfacet
facet normal -0.707106781187116 -0.707106781185979 -5.196795055405262e-16
  outer loop
    vertex 152.951379896123 115.09173221786459 58.38097798645131
    vertex 152.7013798961241 115.34173221786394 65.36978346601626
    vertex 152.7013798961241 115.34173221786394 58.65226904474406
  endloop
endfacet
facet normal -0.707106781187116 -0.707106781185979 -5.196795055405262e-16
  outer loop
    vertex 152.7013798961241 115.34173221786394 58.65226904474406
    vertex 152.7013798961241 115.34173221786394 65.36978346601626
    vertex 152.1676108265695 115.87550128741937 64.38602625538016
  endloop
endfacet
facet normal -0.707106781187116 -0.707106781185979 -5.196795055405262e-16
  outer loop
    vertex 152.7013798961241 115.34173221786394 58.65226904474406
    vertex 152.1676108265695 115.87550128741937 64.38602625538016
    vertex 152.1676108265695 115.87550128741937 59.63602625538016
  endloop
endfacet
facet normal -0.707106781187116 -0.707106781185979 -5.196795055405262e-16
  outer loop
    vertex 152.1676108265695 115.87550128741937 59.63602625538016
    vertex 152.1676108265695 115.87550128741937 64.38602625538016
    vertex 151.83206956213675 116.21104255185269 63.24041671961715
  endloop
endfacet
facet normal -0.707106781187116 -0.707106781185979 -5.196795055405262e-16
  outer loop
    vertex 152.1676108265695 115.87550128741937 59.63602625538016
    vertex 151.83206956213675 116.21104255185269 63.24041671961715
    vertex 151.83206956213675 116.21104255185269 60.78163579114317
  endloop
endfacet
facet normal -0.707106781187116 -0.707106781185979 -5.196795055405262e-16
  outer loop
    vertex 151.83206956213675 116.21104255185269 60.78163579114317
    vertex 151.83206956213675 116.21104255185269 63.24041671961715
    vertex 151.71762268548878 116.32548942850082 62.01102625538016
  endloop
endfacet
facet normal -0.707106781187116 -0.707106781185979 -5.196795055405262e-16
  outer loop
    vertex 158.32069023010763 109.72242188387136 63.24041671961715
    vertex 158.32069023010763 109.72242188387136 60.78163579114317
    vertex 158.43513710675558 109.6079750072232 62.01102625538016
  endloop
endfacet
facet normal -0.707106781187116 -0.707106781185979 -5.196795055405262e-16
  outer loop
    vertex 158.32069023010763 109.72242188387136 60.78163579114317
    vertex 158.32069023010763 109.72242188387136 63.24041671961715
    vertex 157.98514896567485 110.05796314830467 64.38602625538016
  endloop
endfacet
facet normal -0.707106781187116 -0.707106781185979 -5.196795055405262e-16
  outer loop
    vertex 158.32069023010763 109.72242188387136 60.78163579114317
    vertex 157.98514896567485 110.05796314830467 64.38602625538016
    vertex 157.98514896567485 110.05796314830467 59.63602625538016
  endloop
endfacet
facet normal -0.707106781187116 -0.707106781185979 -5.196795055405262e-16
  outer loop
    vertex 157.98514896567485 110.05796314830467 59.63602625538016
    vertex 157.98514896567485 110.05796314830467 64.38602625538016
    vertex 157.45137989612027 110.59173221786011 65.36978346601626
  endloop
endfacet
facet normal -0.707106781187116 -0.707106781185979 -5.196795055405262e-16
  outer loop
    vertex 157.98514896567485 110.05796314830467 59.63602625538016
    vertex 157.45137989612027 110.59173221786011 65.36978346601626
    vertex 157.45137989612027 110.59173221786011 58.65226904474406
  endloop
endfacet
facet normal -0.707106781187116 -0.707106781185979 -5.196795055405262e-16
  outer loop
    vertex 157.45137989612027 110.59173221786011 58.65226904474406
    vertex 157.45137989612027 110.59173221786011 65.36978346601626
    vertex 157.20137989612132 110.84173221785937 65.64107452430896
  endloop
endfacet
facet normal -0.707106781187116 -0.707106781185979 -5.196795055405262e-16
  outer loop
    vertex 157.45137989612027 110.59173221786011 58.65226904474406
    vertex 157.20137989612132 110.84173221785937 65.64107452430896
    vertex 156.7557585014389 111.2873536125426 57.89740558740409
  endloop
endfacet
facet normal -0.707106781187116 -0.707106781185979 -5.196795055405262e-16
  outer loop
    vertex 156.7557585014389 111.2873536125426 57.89740558740409
    vertex 157.20137989612132 110.84173221785937 65.64107452430896
    vertex 156.98556820532434 111.05754390865678 62.01102625538016
  endloop
endfacet
facet normal -0.707106781187116 -0.707106781185979 -5.196795055405262e-16
  outer loop
    vertex 156.7557585014389 111.2873536125426 57.89740558740409
    vertex 156.98556820532434 111.05754390865678 62.01102625538016
    vertex 156.92051419122967 111.12259792275155 61.31221483360336
  endloop
endfacet
facet normal -0.707106781187116 -0.707106781185979 -5.196795055405262e-16
  outer loop
    vertex 156.7557585014389 111.2873536125426 57.89740558740409
    vertex 156.92051419122967 111.12259792275155 61.31221483360336
    vertex 156.72978547249951 111.31332664148202 60.66102625538015
  endloop
endfacet
facet normal -0.707106781187116 -0.707106781185979 -5.196795055405262e-16
  outer loop
    vertex 156.7557585014389 111.2873536125426 57.89740558740409
    vertex 156.72978547249951 111.31332664148202 60.66102625538015
    vertex 155.94569023010953 112.09742188387325 57.42287858050707
  endloop
endfacet
facet normal -0.707106781187116 -0.707106781185979 -5.196795055405262e-16
  outer loop
    vertex 155.94569023010953 112.09742188387325 57.42287858050707
    vertex 156.72978547249951 111.31332664148202 60.66102625538015
    vertex 156.42637989612112 111.61673221786091 60.101837946176474
  endloop
endfacet
facet normal -0.707106781187116 -0.707106781185979 -5.196795055405262e-16
  outer loop
    vertex 155.94569023010953 112.09742188387325 57.42287858050707
    vertex 156.42637989612112 111.61673221786091 60.101837946176474
    vertex 156.03097405072324 112.0121380632594 59.67275766516214
  endloop
endfacet
facet normal -0.707106781187116 -0.707106781185979 -5.196795055405262e-16
  outer loop
    vertex 155.94569023010953 112.09742188387325 57.42287858050707
    vertex 156.03097405072324 112.0121380632594 59.67275766516214
    vertex 155.57051419123076 112.47259792275264 59.40302652439968
  endloop
endfacet
facet normal -0.707106781187116 -0.707106781185979 -5.196795055405262e-16
  outer loop
    vertex 155.94569023010953 112.09742188387325 57.42287858050707
    vertex 155.57051419123076 112.47259792275264 59.40302652439968
    vertex 155.07637989612218 112.966732217862 57.26102625538016
  endloop
endfacet
facet normal -0.707106781187116 -0.707106781185979 -5.196795055405262e-16
  outer loop
    vertex 155.07637989612218 112.966732217862 57.26102625538016
    vertex 155.57051419123076 112.47259792275264 59.40302652439968
    vertex 155.07637989612218 112.966732217862 59.31102625538014
  endloop
endfacet
facet normal -0.707106781187116 -0.707106781185979 -5.196795055405262e-16
  outer loop
    vertex 155.07637989612218 112.966732217862 57.26102625538016
    vertex 155.07637989612218 112.966732217862 59.31102625538014
    vertex 154.5822456010136 113.46086651297139 59.40302652439968
  endloop
endfacet
facet normal -0.707106781187116 -0.707106781185979 -5.196795055405262e-16
  outer loop
    vertex 155.07637989612218 112.966732217862 57.26102625538016
    vertex 154.5822456010136 113.46086651297139 59.40302652439968
    vertex 154.20706956213482 113.83604255185077 57.42287858050707
  endloop
endfacet
facet normal -0.707106781187116 -0.707106781185979 -5.196795055405262e-16
  outer loop
    vertex 154.20706956213482 113.83604255185077 57.42287858050707
    vertex 154.5822456010136 113.46086651297139 59.40302652439968
    vertex 154.1217857415211 113.92132637246462 59.67275766516214
  endloop
endfacet
facet normal -0.707106781187116 -0.707106781185979 -5.196795055405262e-16
  outer loop
    vertex 154.20706956213482 113.83604255185077 57.42287858050707
    vertex 154.1217857415211 113.92132637246462 59.67275766516214
    vertex 153.3970012908055 114.64611082318142 57.89740558740409
  endloop
endfacet
facet normal -0.707106781187116 -0.707106781185979 -5.196795055405262e-16
  outer loop
    vertex 153.3970012908055 114.64611082318142 57.89740558740409
    vertex 154.1217857415211 113.92132637246462 59.67275766516214
    vertex 153.72637989612326 114.3167322178631 60.101837946176474
  endloop
endfacet
facet normal -0.707106781187116 -0.707106781185979 -5.196795055405262e-16
  outer loop
    vertex 153.3970012908055 114.64611082318142 57.89740558740409
    vertex 153.72637989612326 114.3167322178631 60.101837946176474
    vertex 153.42297431974484 114.620137794242 60.66102625538015
  endloop
endfacet
facet normal -0.707106781187116 -0.707106781185979 -5.196795055405262e-16
  outer loop
    vertex 153.3970012908055 114.64611082318142 57.89740558740409
    vertex 153.42297431974484 114.620137794242 60.66102625538015
    vertex 153.23224560101465 114.8108665129725 61.31221483360336
  endloop
endfacet
facet normal -0.707106781187116 -0.707106781185979 -5.196795055405262e-16
  outer loop
    vertex 153.3970012908055 114.64611082318142 57.89740558740409
    vertex 153.23224560101465 114.8108665129725 61.31221483360336
    vertex 152.951379896123 115.09173221786459 58.38097798645131
  endloop
endfacet
facet normal -0.707106781187116 -0.707106781185979 -5.196795055405262e-16
  outer loop
    vertex 152.951379896123 115.09173221786459 58.38097798645131
    vertex 153.23224560101465 114.8108665129725 61.31221483360336
    vertex 153.16719158692004 114.87592052706724 62.01102625538016
  endloop
endfacet
facet normal 0.6532814824376787 -0.6532814824387285 0.3826834323650374
  outer loop
    vertex 155.85724560101764 117.43586651297126 61.31221483360336
    vertex 153.42297431974484 114.620137794242 60.66102625538015
    vertex 156.04797431974782 117.24513779424078 60.66102625538015
  endloop
endfacet
facet normal 0.6532814824376787 -0.6532814824387285 0.3826834323650374
  outer loop
    vertex 153.42297431974484 114.620137794242 60.66102625538015
    vertex 155.85724560101764 117.43586651297126 61.31221483360336
    vertex 153.23224560101465 114.8108665129725 61.31221483360336
  endloop
endfacet
facet normal 0.09229595564120167 -0.09229595564135 0.9914448613738072
  outer loop
    vertex 155.07637989612218 112.966732217862 59.31102625538014
    vertex 157.20724560101658 116.08586651297017 59.40302652439968
    vertex 154.5822456010136 113.46086651297139 59.40302652439968
  endloop
endfacet
facet normal 0.09229595564120167 -0.09229595564135 0.9914448613738072
  outer loop
    vertex 157.20724560101658 116.08586651297017 59.40302652439968
    vertex 155.07637989612218 112.966732217862 59.31102625538014
    vertex 157.70137989612516 115.59173221786078 59.31102625538014
  endloop
endfacet
facet normal 0.4304593345765501 -0.43045933457724184 0.7933533402912174
  outer loop
    vertex 154.1217857415211 113.92132637246462 59.67275766516214
    vertex 156.35137989612625 116.94173221786187 60.101837946176474
    vertex 153.72637989612326 114.3167322178631 60.101837946176474
  endloop
endfacet
facet normal 0.4304593345765501 -0.43045933457724184 0.7933533402912174
  outer loop
    vertex 156.35137989612625 116.94173221786187 60.101837946176474
    vertex 154.1217857415211 113.92132637246462 59.67275766516214
    vertex 156.7467857415241 116.5463263724634 59.67275766516214
  endloop
endfacet
facet normal 0.7010573846494121 -0.7010573846505388 0.13052619222007783
  outer loop
    vertex 155.792191586923 117.500920527066 62.01102625538016
    vertex 153.23224560101465 114.8108665129725 61.31221483360336
    vertex 155.85724560101764 117.43586651297126 61.31221483360336
  endloop
endfacet
facet normal 0.7010573846494121 -0.7010573846505388 0.13052619222007783
  outer loop
    vertex 153.23224560101465 114.8108665129725 61.31221483360336
    vertex 155.792191586923 117.500920527066 62.01102625538016
    vertex 153.16719158692004 114.87592052706724 62.01102625538016
  endloop
endfacet
facet normal -0.7010573846494121 0.7010573846505388 -0.13052619222007783
  outer loop
    vertex 156.92051419122967 111.12259792275155 62.709837677156955
    vertex 159.61056820532733 113.68254390865556 62.01102625538016
    vertex 156.98556820532434 111.05754390865678 62.01102625538016
  endloop
endfacet
facet normal -0.7010573846494121 0.7010573846505388 -0.13052619222007783
  outer loop
    vertex 159.61056820532733 113.68254390865556 62.01102625538016
    vertex 156.92051419122967 111.12259792275155 62.709837677156955
    vertex 159.54551419123268 113.7475979227503 62.709837677156955
  endloop
endfacet
facet normal 0.27059805007284404 -0.27059805007327886 0.9238795325113085
  outer loop
    vertex 154.5822456010136 113.46086651297139 59.40302652439968
    vertex 156.7467857415241 116.5463263724634 59.67275766516214
    vertex 154.1217857415211 113.92132637246462 59.67275766516214
  endloop
endfacet
facet normal 0.27059805007284404 -0.27059805007327886 0.9238795325113085
  outer loop
    vertex 156.7467857415241 116.5463263724634 59.67275766516214
    vertex 154.5822456010136 113.46086651297139 59.40302652439968
    vertex 157.20724560101658 116.08586651297017 59.40302652439968
  endloop
endfacet
facet normal -1.0 8.024692021990631e-13 8.109923139239865e-16
  outer loop
    vertex 157.20137989612138 110.84173221786087 100.01102625538013
    vertex 157.2013798961221 111.73297500722511 66.12464692335622
    vertex 157.20137989612132 110.84173221785937 65.64107452430896
  endloop
endfacet
facet normal -1.0 8.024692021990631e-13 8.109923139239865e-16
  outer loop
    vertex 157.2013798961221 111.73297500722511 66.12464692335622
    vertex 157.20137989612138 110.84173221786087 100.01102625538013
    vertex 157.201379896129 120.34173221786092 100.01102625538013
  endloop
endfacet
facet normal -1.0 8.024692021990631e-13 8.109923139239865e-16
  outer loop
    vertex 157.2013798961221 111.73297500722511 66.12464692335622
    vertex 157.201379896129 120.34173221786092 100.01102625538013
    vertex 157.20137989612337 113.35311154988507 66.59917393025324
  endloop
endfacet
facet normal -1.0 8.024692021990631e-13 8.109923139239865e-16
  outer loop
    vertex 157.20137989612337 113.35311154988507 66.59917393025324
    vertex 157.201379896129 120.34173221786092 100.01102625538013
    vertex 157.20137989612476 115.09173221786119 66.76102625538012
  endloop
endfacet
facet normal -1.0 8.024692021990631e-13 8.109923139239865e-16
  outer loop
    vertex 157.20137989612476 115.09173221786119 66.76102625538012
    vertex 157.201379896129 120.34173221786092 100.01102625538013
    vertex 157.20137989612616 116.83035288583729 66.59917393025324
  endloop
endfacet
facet normal -1.0 8.024692021990631e-13 8.109923139239865e-16
  outer loop
    vertex 157.20137989612616 116.83035288583729 66.59917393025324
    vertex 157.201379896129 120.34173221786092 100.01102625538013
    vertex 157.20137989612746 118.45048942849729 66.12464692335622
  endloop
endfacet
facet normal -1.0 8.024692021990631e-13 8.109923139239865e-16
  outer loop
    vertex 157.20137989612746 118.45048942849729 66.12464692335622
    vertex 157.201379896129 120.34173221786092 100.01102625538013
    vertex 157.20137989612857 119.84173221786116 65.36978346601634
  endloop
endfacet
facet normal -1.0 8.024692021990631e-13 8.109923139239865e-16
  outer loop
    vertex 157.20137989612857 119.84173221786116 65.36978346601634
    vertex 157.201379896129 120.34173221786092 100.01102625538013
    vertex 157.201379896129 120.3417322178609 64.9090237167414
  endloop
endfacet
facet normal -0.4304593345765501 0.43045933457724184 0.7933533402912174
  outer loop
    vertex 156.42637989612112 111.61673221786091 60.101837946176474
    vertex 158.65597405072626 114.63713806325816 59.67275766516214
    vertex 156.03097405072324 112.0121380632594 59.67275766516214
  endloop
endfacet
facet normal -0.4304593345765501 0.43045933457724184 0.7933533402912174
  outer loop
    vertex 158.65597405072626 114.63713806325816 59.67275766516214
    vertex 156.42637989612112 111.61673221786091 60.101837946176474
    vertex 159.05137989612408 114.24173221785969 60.101837946176474
  endloop
endfacet
facet normal 0.7010573846494121 -0.7010573846505388 -0.13052619222007783
  outer loop
    vertex 155.85724560101764 117.43586651297126 62.709837677156955
    vertex 153.16719158692004 114.87592052706724 62.01102625538016
    vertex 155.792191586923 117.500920527066 62.01102625538016
  endloop
endfacet
facet normal 0.7010573846494121 -0.7010573846505388 -0.13052619222007783
  outer loop
    vertex 153.16719158692004 114.87592052706724 62.01102625538016
    vertex 155.85724560101764 117.43586651297126 62.709837677156955
    vertex 153.23224560101465 114.8108665129725 62.709837677156955
  endloop
endfacet
facet normal -0.5609855267964676 0.5609855267973691 0.608761429008744
  outer loop
    vertex 156.72978547249951 111.31332664148202 60.66102625538015
    vertex 159.05137989612408 114.24173221785969 60.101837946176474
    vertex 156.42637989612112 111.61673221786091 60.101837946176474
  endloop
endfacet
facet normal -0.5609855267964676 0.5609855267973691 0.608761429008744
  outer loop
    vertex 159.05137989612408 114.24173221785969 60.101837946176474
    vertex 156.72978547249951 111.31332664148202 60.66102625538015
    vertex 159.3547854725025 113.93832664148078 60.66102625538015
  endloop
endfacet
facet normal -0.7010573846494121 0.7010573846505388 0.13052619222007783
  outer loop
    vertex 156.98556820532434 111.05754390865678 62.01102625538016
    vertex 159.54551419123268 113.7475979227503 61.31221483360336
    vertex 156.92051419122967 111.12259792275155 61.31221483360336
  endloop
endfacet
facet normal -0.7010573846494121 0.7010573846505388 0.13052619222007783
  outer loop
    vertex 159.54551419123268 113.7475979227503 61.31221483360336
    vertex 156.98556820532434 111.05754390865678 62.01102625538016
    vertex 159.61056820532733 113.68254390865556 62.01102625538016
  endloop
endfacet
facet normal -0.09229595564120167 0.09229595564135 -0.9914448613738072
  outer loop
    vertex 157.70137989612516 115.59173221786078 64.71102625538018
    vertex 155.57051419123076 112.47259792275264 64.61902598636064
    vertex 155.07637989612218 112.966732217862 64.71102625538018
  endloop
endfacet
facet normal -0.09229595564120167 0.09229595564135 -0.9914448613738072
  outer loop
    vertex 155.57051419123076 112.47259792275264 64.61902598636064
    vertex 157.70137989612516 115.59173221786078 64.71102625538018
    vertex 158.19551419123374 115.09759792275139 64.61902598636064
  endloop
endfacet
facet normal 0.27059805007284404 -0.27059805007327886 -0.9238795325113085
  outer loop
    vertex 156.7467857415241 116.5463263724634 64.34929484559818
    vertex 154.5822456010136 113.46086651297139 64.61902598636064
    vertex 154.1217857415211 113.92132637246462 64.34929484559818
  endloop
endfacet
facet normal 0.27059805007284404 -0.27059805007327886 -0.9238795325113085
  outer loop
    vertex 154.5822456010136 113.46086651297139 64.61902598636064
    vertex 156.7467857415241 116.5463263724634 64.34929484559818
    vertex 157.20724560101658 116.08586651297017 64.61902598636064
  endloop
endfacet
facet normal 0.4304593345765501 -0.43045933457724184 -0.7933533402912174
  outer loop
    vertex 156.35137989612625 116.94173221786187 63.920214564583844
    vertex 154.1217857415211 113.92132637246462 64.34929484559818
    vertex 153.72637989612326 114.3167322178631 63.920214564583844
  endloop
endfacet
facet normal 0.4304593345765501 -0.43045933457724184 -0.7933533402912174
  outer loop
    vertex 154.1217857415211 113.92132637246462 64.34929484559818
    vertex 156.35137989612625 116.94173221786187 63.920214564583844
    vertex 156.7467857415241 116.5463263724634 64.34929484559818
  endloop
endfacet
facet normal -0.6532814824376787 0.6532814824387285 0.3826834323650374
  outer loop
    vertex 156.92051419122967 111.12259792275155 61.31221483360336
    vertex 159.3547854725025 113.93832664148078 60.66102625538015
    vertex 156.72978547249951 111.31332664148202 60.66102625538015
  endloop
endfacet
facet normal -0.6532814824376787 0.6532814824387285 0.3826834323650374
  outer loop
    vertex 159.3547854725025 113.93832664148078 60.66102625538015
    vertex 156.92051419122967 111.12259792275155 61.31221483360336
    vertex 159.54551419123268 113.7475979227503 61.31221483360336
  endloop
endfacet
facet normal -0.27059805007284404 0.27059805007327886 0.9238795325113085
  outer loop
    vertex 156.03097405072324 112.0121380632594 59.67275766516214
    vertex 158.19551419123374 115.09759792275139 59.40302652439968
    vertex 155.57051419123076 112.47259792275264 59.40302652439968
  endloop
endfacet
facet normal -0.27059805007284404 0.27059805007327886 0.9238795325113085
  outer loop
    vertex 158.19551419123374 115.09759792275139 59.40302652439968
    vertex 156.03097405072324 112.0121380632594 59.67275766516214
    vertex 158.65597405072626 114.63713806325816 59.67275766516214
  endloop
endfacet
facet normal 0.09229595564120167 -0.09229595564135 -0.9914448613738072
  outer loop
    vertex 157.20724560101658 116.08586651297017 64.61902598636064
    vertex 155.07637989612218 112.966732217862 64.71102625538018
    vertex 154.5822456010136 113.46086651297139 64.61902598636064
  endloop
endfacet
facet normal 0.09229595564120167 -0.09229595564135 -0.9914448613738072
  outer loop
    vertex 155.07637989612218 112.966732217862 64.71102625538018
    vertex 157.20724560101658 116.08586651297017 64.61902598636064
    vertex 157.70137989612516 115.59173221786078 64.71102625538018
  endloop
endfacet
facet normal 0.5609855267964676 -0.5609855267973691 0.608761429008744
  outer loop
    vertex 153.72637989612326 114.3167322178631 60.101837946176474
    vertex 156.04797431974782 117.24513779424078 60.66102625538015
    vertex 153.42297431974484 114.620137794242 60.66102625538015
  endloop
endfacet
facet normal 0.5609855267964676 -0.5609855267973691 0.608761429008744
  outer loop
    vertex 156.04797431974782 117.24513779424078 60.66102625538015
    vertex 153.72637989612326 114.3167322178631 60.101837946176474
    vertex 156.35137989612625 116.94173221786187 60.101837946176474
  endloop
endfacet
facet normal -0.09229595564120167 0.09229595564135 0.9914448613738072
  outer loop
    vertex 155.57051419123076 112.47259792275264 59.40302652439968
    vertex 157.70137989612516 115.59173221786078 59.31102625538014
    vertex 155.07637989612218 112.966732217862 59.31102625538014
  endloop
endfacet
facet normal -0.09229595564120167 0.09229595564135 0.9914448613738072
  outer loop
    vertex 157.70137989612516 115.59173221786078 59.31102625538014
    vertex 155.57051419123076 112.47259792275264 59.40302652439968
    vertex 158.19551419123374 115.09759792275139 59.40302652439968
  endloop
endfacet
facet normal -0.5609855267964676 0.5609855267973691 -0.608761429008744
  outer loop
    vertex 159.05137989612408 114.24173221785969 63.920214564583844
    vertex 156.72978547249951 111.31332664148202 63.36102625538017
    vertex 156.42637989612112 111.61673221786091 63.920214564583844
  endloop
endfacet
facet normal -0.5609855267964676 0.5609855267973691 -0.608761429008744
  outer loop
    vertex 156.72978547249951 111.31332664148202 63.36102625538017
    vertex 159.05137989612408 114.24173221785969 63.920214564583844
    vertex 159.3547854725025 113.93832664148078 63.36102625538017
  endloop
endfacet
facet normal 0.5609855267964676 -0.5609855267973691 -0.608761429008744
  outer loop
    vertex 156.04797431974782 117.24513779424078 63.36102625538017
    vertex 153.72637989612326 114.3167322178631 63.920214564583844
    vertex 153.42297431974484 114.620137794242 63.36102625538017
  endloop
endfacet
facet normal 0.5609855267964676 -0.5609855267973691 -0.608761429008744
  outer loop
    vertex 153.72637989612326 114.3167322178631 63.920214564583844
    vertex 156.04797431974782 117.24513779424078 63.36102625538017
    vertex 156.35137989612625 116.94173221786187 63.920214564583844
  endloop
endfacet
facet normal -0.6532814824376787 0.6532814824387285 -0.3826834323650374
  outer loop
    vertex 156.72978547249951 111.31332664148202 63.36102625538017
    vertex 159.54551419123268 113.7475979227503 62.709837677156955
    vertex 156.92051419122967 111.12259792275155 62.709837677156955
  endloop
endfacet
facet normal -0.6532814824376787 0.6532814824387285 -0.3826834323650374
  outer loop
    vertex 159.54551419123268 113.7475979227503 62.709837677156955
    vertex 156.72978547249951 111.31332664148202 63.36102625538017
    vertex 159.3547854725025 113.93832664148078 63.36102625538017
  endloop
endfacet
facet normal -0.4304593345765501 0.43045933457724184 -0.7933533402912174
  outer loop
    vertex 158.65597405072626 114.63713806325816 64.34929484559818
    vertex 156.42637989612112 111.61673221786091 63.920214564583844
    vertex 156.03097405072324 112.0121380632594 64.34929484559818
  endloop
endfacet
facet normal -0.4304593345765501 0.43045933457724184 -0.7933533402912174
  outer loop
    vertex 156.42637989612112 111.61673221786091 63.920214564583844
    vertex 158.65597405072626 114.63713806325816 64.34929484559818
    vertex 159.05137989612408 114.24173221785969 63.920214564583844
  endloop
endfacet
facet normal -0.27059805007284404 0.27059805007327886 -0.9238795325113085
  outer loop
    vertex 158.19551419123374 115.09759792275139 64.61902598636064
    vertex 156.03097405072324 112.0121380632594 64.34929484559818
    vertex 155.57051419123076 112.47259792275264 64.61902598636064
  endloop
endfacet
facet normal -0.27059805007284404 0.27059805007327886 -0.9238795325113085
  outer loop
    vertex 156.03097405072324 112.0121380632594 64.34929484559818
    vertex 158.19551419123374 115.09759792275139 64.61902598636064
    vertex 158.65597405072626 114.63713806325816 64.34929484559818
  endloop
endfacet
facet normal 0.6532814824376787 -0.6532814824387285 -0.3826834323650374
  outer loop
    vertex 156.04797431974782 117.24513779424078 63.36102625538017
    vertex 153.23224560101465 114.8108665129725 62.709837677156955
    vertex 155.85724560101764 117.43586651297126 62.709837677156955
  endloop
endfacet
facet normal 0.6532814824376787 -0.6532814824387285 -0.3826834323650374
  outer loop
    vertex 153.23224560101465 114.8108665129725 62.709837677156955
    vertex 156.04797431974782 117.24513779424078 63.36102625538017
    vertex 153.42297431974484 114.620137794242 63.36102625538017
  endloop
endfacet
facet normal -1.0 1.5591417046323386e-12 -1.6392819757134728e-14
  outer loop
    vertex 152.95137989612496 115.59173221786448 58.65226904474411
    vertex 152.9513798961246 115.09173221786459 24.011026255380184
    vertex 152.951379896123 115.09173221786459 58.38097798645131
  endloop
endfacet
facet normal -1.0 1.5591417046323386e-12 -1.6392819757134728e-14
  outer loop
    vertex 152.9513798961246 115.09173221786459 24.011026255380184
    vertex 152.95137989612496 115.59173221786448 58.65226904474411
    vertex 152.95137989612542 116.09173221786459 24.011026255380184
  endloop
endfacet
facet normal -1.0 1.5591417046323386e-12 -1.6392819757134728e-14
  outer loop
    vertex 152.95137989612542 116.09173221786459 24.011026255380184
    vertex 152.95137989612496 115.59173221786448 58.65226904474411
    vertex 152.9513798961253 116.0917322178647 59.113028794019556
  endloop
endfacet
facet normal -0.43045933457652913 0.43045933457725405 -0.793353340291222
  outer loop
    vertex 152.95137989612496 115.59173221786448 58.65226904474411
    vertex 152.951379896123 115.09173221786459 58.38097798645131
    vertex 152.7013798961241 115.34173221786394 58.65226904474406
  endloop
endfacet
facet normal -8.034128917699945e-13 -1.0 6.758269282699763e-16
  outer loop
    vertex 162.45137989612473 115.09173221785697 59.1130287940191
    vertex 152.9513798961246 115.09173221786459 24.011026255380184
    vertex 162.45137989612465 115.09173221785697 24.011026255380184
  endloop
endfacet
facet normal -8.034128917699945e-13 -1.0 6.758269282699763e-16
  outer loop
    vertex 152.9513798961246 115.09173221786459 24.011026255380184
    vertex 162.45137989612473 115.09173221785697 59.1130287940191
    vertex 161.9513798961248 115.0917322178574 58.65226904474411
  endloop
endfacet
facet normal -8.034128917699945e-13 -1.0 6.758269282699763e-16
  outer loop
    vertex 152.9513798961246 115.09173221786459 24.011026255380184
    vertex 161.9513798961248 115.0917322178574 58.65226904474411
    vertex 160.56013710676095 115.09173221785852 57.89740558740414
  endloop
endfacet
facet normal -8.034128917699945e-13 -1.0 6.758269282699763e-16
  outer loop
    vertex 152.9513798961246 115.09173221786459 24.011026255380184
    vertex 160.56013710676095 115.09173221785852 57.89740558740414
    vertex 158.94000056410098 115.09173221785981 57.42287858050707
  endloop
endfacet
facet normal -8.034128917699945e-13 -1.0 6.758269282699763e-16
  outer loop
    vertex 152.9513798961246 115.09173221786459 24.011026255380184
    vertex 158.94000056410098 115.09173221785981 57.42287858050707
    vertex 157.2013798961248 115.0917322178612 57.26102625538016
  endloop
endfacet
facet normal -8.034128917699945e-13 -1.0 6.758269282699763e-16
  outer loop
    vertex 152.9513798961246 115.09173221786459 24.011026255380184
    vertex 153.84262268548875 115.09173221786392 57.89740558740414
    vertex 152.951379896123 115.09173221786459 58.38097798645131
  endloop
endfacet
facet normal -8.034128917699945e-13 -1.0 6.758269282699763e-16
  outer loop
    vertex 153.84262268548875 115.09173221786392 57.89740558740414
    vertex 152.9513798961246 115.09173221786459 24.011026255380184
    vertex 155.46275922814863 115.09173221786261 57.42287858050712
  endloop
endfacet
facet normal -8.034128917699945e-13 -1.0 6.758269282699763e-16
  outer loop
    vertex 155.46275922814863 115.09173221786261 57.42287858050712
    vertex 152.9513798961246 115.09173221786459 24.011026255380184
    vertex 157.2013798961248 115.0917322178612 57.26102625538016
  endloop
endfacet
facet normal -0.43045933457645186 0.43045933457728563 -0.7933533402912467
  outer loop
    vertex 153.84262268548875 115.09173221786392 57.89740558740414
    vertex 153.3970012908055 114.64611082318142 57.89740558740409
    vertex 152.951379896123 115.09173221786459 58.38097798645131
  endloop
endfacet
facet normal -0.2705980500728981 0.27059805007336496 -0.9238795325112676
  outer loop
    vertex 153.84262268548875 115.09173221786392 57.89740558740414
    vertex 154.20706956213482 113.83604255185077 57.42287858050707
    vertex 153.3970012908055 114.64611082318142 57.89740558740409
  endloop
endfacet
facet normal -0.2705980500728981 0.27059805007336496 -0.9238795325112676
  outer loop
    vertex 154.20706956213482 113.83604255185077 57.42287858050707
    vertex 153.84262268548875 115.09173221786392 57.89740558740414
    vertex 155.46275922814863 115.09173221786261 57.42287858050712
  endloop
endfacet
facet normal 0.09229595564117375 -0.09229595564130648 0.9914448613738136
  outer loop
    vertex 155.94569023010953 112.09742188387325 66.59917393025324
    vertex 157.20137989612476 115.09173221786119 66.76102625538012
    vertex 155.07637989612218 112.966732217862 66.76102625538016
  endloop
endfacet
facet normal 0.09229595564117375 -0.09229595564130648 0.9914448613738136
  outer loop
    vertex 157.20137989612476 115.09173221786119 66.76102625538012
    vertex 155.94569023010953 112.09742188387325 66.59917393025324
    vertex 157.20137989612337 113.35311154988507 66.59917393025324
  endloop
endfacet
facet normal -4.846123502488808e-14 -1.0 1.424385927016133e-14
  outer loop
    vertex 158.20137989612138 110.84173221786006 100.01102625538013
    vertex 157.70137989612095 110.84173221786047 65.36978346601639
    vertex 158.20137989612144 110.84173221786006 64.90902371674068
  endloop
endfacet
facet normal -4.846123502488808e-14 -1.0 1.424385927016133e-14
  outer loop
    vertex 157.70137989612095 110.84173221786047 65.36978346601639
    vertex 158.20137989612138 110.84173221786006 100.01102625538013
    vertex 157.20137989612132 110.84173221785937 65.64107452430896
  endloop
endfacet
facet normal -4.846123502488808e-14 -1.0 1.424385927016133e-14
  outer loop
    vertex 157.20137989612132 110.84173221785937 65.64107452430896
    vertex 158.20137989612138 110.84173221786006 100.01102625538013
    vertex 157.20137989612138 110.84173221786087 100.01102625538013
  endloop
endfacet
facet normal -0.09229595564118373 0.09229595564134004 -0.9914448613738096
  outer loop
    vertex 155.46275922814863 115.09173221786261 57.42287858050712
    vertex 155.07637989612218 112.966732217862 57.26102625538016
    vertex 154.20706956213482 113.83604255185077 57.42287858050707
  endloop
endfacet
facet normal -0.09229595564118373 0.09229595564134004 -0.9914448613738096
  outer loop
    vertex 155.07637989612218 112.966732217862 57.26102625538016
    vertex 155.46275922814863 115.09173221786261 57.42287858050712
    vertex 157.2013798961248 115.0917322178612 57.26102625538016
  endloop
endfacet
facet normal 0.43045933457653907 -0.43045933457722524 -0.7933533402912322
  outer loop
    vertex 160.56013710676095 115.09173221785852 57.89740558740414
    vertex 157.45137989612027 110.59173221786011 58.65226904474406
    vertex 156.7557585014389 111.2873536125426 57.89740558740409
  endloop
endfacet
facet normal 0.43045933457653907 -0.43045933457722524 -0.7933533402912322
  outer loop
    vertex 157.45137989612027 110.59173221786011 58.65226904474406
    vertex 160.56013710676095 115.09173221785852 57.89740558740414
    vertex 161.9513798961248 115.0917322178574 58.65226904474411
  endloop
endfacet
facet normal 0.43045933457637536 -0.4304593345773868 0.7933533402912334
  outer loop
    vertex 157.70137989612095 110.84173221786047 65.36978346601639
    vertex 157.20137989612132 110.84173221785937 65.64107452430896
    vertex 157.45137989612027 110.59173221786011 65.36978346601626
  endloop
endfacet
facet normal -0.43045933457651747 0.4304593345772093 0.7933533402912526
  outer loop
    vertex 158.64700129081078 119.89611082317828 66.12464692335622
    vertex 158.201379896129 120.3417322178602 65.64107452431008
    vertex 158.20137989612832 119.45048942849651 66.12464692335622
  endloop
endfacet
facet normal 0.2705980500728981 -0.27059805007333304 0.9238795325112769
  outer loop
    vertex 156.7557585014389 111.2873536125426 66.12464692335622
    vertex 157.20137989612337 113.35311154988507 66.59917393025324
    vertex 155.94569023010953 112.09742188387325 66.59917393025324
  endloop
endfacet
facet normal 0.2705980500728981 -0.27059805007333304 0.9238795325112769
  outer loop
    vertex 157.20137989612337 113.35311154988507 66.59917393025324
    vertex 156.7557585014389 111.2873536125426 66.12464692335622
    vertex 157.2013798961221 111.73297500722511 66.12464692335622
  endloop
endfacet
facet normal 0.7071067811871153 0.7071067811859797 5.196795055407446e-16
  outer loop
    vertex 162.00575850144418 116.53735361253948 57.89740558740409
    vertex 162.23556820532963 116.30754390865366 62.01102625538016
    vertex 162.45137989612542 116.09173221785699 58.380977986450276
  endloop
endfacet
facet normal 0.7071067811871153 0.7071067811859797 5.196795055407446e-16
  outer loop
    vertex 162.23556820532963 116.30754390865366 62.01102625538016
    vertex 162.00575850144418 116.53735361253948 57.89740558740409
    vertex 162.170514191235 116.3725979227484 61.31221483360336
  endloop
endfacet
facet normal 0.7071067811871153 0.7071067811859797 5.196795055407446e-16
  outer loop
    vertex 162.170514191235 116.3725979227484 61.31221483360336
    vertex 162.00575850144418 116.53735361253948 57.89740558740409
    vertex 161.97978547250483 116.56332664147888 60.66102625538015
  endloop
endfacet
facet normal 0.7071067811871153 0.7071067811859797 5.196795055407446e-16
  outer loop
    vertex 161.97978547250483 116.56332664147888 60.66102625538015
    vertex 162.00575850144418 116.53735361253948 57.89740558740409
    vertex 161.19569023011485 117.34742188387011 57.42287858050707
  endloop
endfacet
facet normal 0.7071067811871153 0.7071067811859797 5.196795055407446e-16
  outer loop
    vertex 161.97978547250483 116.56332664147888 60.66102625538015
    vertex 161.19569023011485 117.34742188387011 57.42287858050707
    vertex 161.6763798961264 116.86673221785779 60.101837946176474
  endloop
endfacet
facet normal 0.7071067811871153 0.7071067811859797 5.196795055407446e-16
  outer loop
    vertex 161.6763798961264 116.86673221785779 60.101837946176474
    vertex 161.19569023011485 117.34742188387011 57.42287858050707
    vertex 161.28097405072856 117.26213806325626 59.67275766516214
  endloop
endfacet
facet normal 0.7071067811871153 0.7071067811859797 5.196795055407446e-16
  outer loop
    vertex 161.28097405072856 117.26213806325626 59.67275766516214
    vertex 161.19569023011485 117.34742188387011 57.42287858050707
    vertex 160.82051419123607 117.72259792274949 59.40302652439968
  endloop
endfacet
facet normal 0.7071067811871153 0.7071067811859797 5.196795055407446e-16
  outer loop
    vertex 160.82051419123607 117.72259792274949 59.40302652439968
    vertex 161.19569023011485 117.34742188387011 57.42287858050707
    vertex 160.3263798961275 118.21673221785888 57.26102625538016
  endloop
endfacet
facet normal 0.7071067811871153 0.7071067811859797 5.196795055407446e-16
  outer loop
    vertex 160.82051419123607 117.72259792274949 59.40302652439968
    vertex 160.3263798961275 118.21673221785888 57.26102625538016
    vertex 160.3263798961275 118.21673221785888 59.31102625538014
  endloop
endfacet
facet normal 0.7071067811871153 0.7071067811859797 5.196795055407446e-16
  outer loop
    vertex 160.3263798961275 118.21673221785888 59.31102625538014
    vertex 160.3263798961275 118.21673221785888 57.26102625538016
    vertex 159.45706956214013 119.08604255184763 57.42287858050707
  endloop
endfacet
facet normal 0.7071067811871153 0.7071067811859797 5.196795055407446e-16
  outer loop
    vertex 160.3263798961275 118.21673221785888 59.31102625538014
    vertex 159.45706956214013 119.08604255184763 57.42287858050707
    vertex 159.83224560101888 118.71086651296827 59.40302652439968
  endloop
endfacet
facet normal 0.7071067811871153 0.7071067811859797 5.196795055407446e-16
  outer loop
    vertex 159.83224560101888 118.71086651296827 59.40302652439968
    vertex 159.45706956214013 119.08604255184763 57.42287858050707
    vertex 159.3717857415264 119.17132637246148 59.67275766516214
  endloop
endfacet
facet normal 0.7071067811871153 0.7071067811859797 5.196795055407446e-16
  outer loop
    vertex 159.3717857415264 119.17132637246148 59.67275766516214
    vertex 159.45706956214013 119.08604255184763 57.42287858050707
    vertex 158.64700129081078 119.89611082317828 57.89740558740409
  endloop
endfacet
facet normal 0.7071067811871153 0.7071067811859797 5.196795055407446e-16
  outer loop
    vertex 159.3717857415264 119.17132637246148 59.67275766516214
    vertex 158.64700129081078 119.89611082317828 57.89740558740409
    vertex 158.97637989612855 119.56673221785996 60.101837946176474
  endloop
endfacet
facet normal 0.7071067811871153 0.7071067811859797 5.196795055407446e-16
  outer loop
    vertex 158.97637989612855 119.56673221785996 60.101837946176474
    vertex 158.64700129081078 119.89611082317828 57.89740558740409
    vertex 158.67297431975013 119.87013779423887 60.66102625538015
  endloop
endfacet
facet normal 0.7071067811871153 0.7071067811859797 5.196795055407446e-16
  outer loop
    vertex 158.67297431975013 119.87013779423887 60.66102625538015
    vertex 158.64700129081078 119.89611082317828 57.89740558740409
    vertex 158.48224560101997 120.06086651296935 61.31221483360336
  endloop
endfacet
facet normal 0.7071067811871153 0.7071067811859797 5.196795055407446e-16
  outer loop
    vertex 158.48224560101997 120.06086651296935 61.31221483360336
    vertex 158.64700129081078 119.89611082317828 57.89740558740409
    vertex 157.95137989612937 120.5917322178608 58.65226904474406
  endloop
endfacet
facet normal 0.7071067811871153 0.7071067811859797 5.196795055407446e-16
  outer loop
    vertex 158.48224560101997 120.06086651296935 61.31221483360336
    vertex 157.95137989612937 120.5917322178608 58.65226904474406
    vertex 158.41719158692533 120.1259205270641 62.01102625538016
  endloop
endfacet
facet normal 0.7071067811871153 0.7071067811859797 5.196795055407446e-16
  outer loop
    vertex 158.41719158692533 120.1259205270641 62.01102625538016
    vertex 157.95137989612937 120.5917322178608 58.65226904474406
    vertex 158.201379896129 120.3417322178602 65.64107452431008
  endloop
endfacet
facet normal 0.7071067811871153 0.7071067811859797 5.196795055407446e-16
  outer loop
    vertex 158.201379896129 120.3417322178602 65.64107452431008
    vertex 157.95137989612937 120.5917322178608 58.65226904474406
    vertex 157.95137989612937 120.5917322178608 65.36978346601626
  endloop
endfacet
facet normal 0.7071067811871153 0.7071067811859797 5.196795055407446e-16
  outer loop
    vertex 157.95137989612937 120.5917322178608 65.36978346601626
    vertex 157.95137989612937 120.5917322178608 58.65226904474406
    vertex 157.4176108265748 121.12550128741624 59.63602625538016
  endloop
endfacet
facet normal 0.7071067811871153 0.7071067811859797 5.196795055407446e-16
  outer loop
    vertex 157.95137989612937 120.5917322178608 65.36978346601626
    vertex 157.4176108265748 121.12550128741624 59.63602625538016
    vertex 157.4176108265748 121.12550128741624 64.38602625538016
  endloop
endfacet
facet normal 0.7071067811871153 0.7071067811859797 5.196795055407446e-16
  outer loop
    vertex 157.4176108265748 121.12550128741624 64.38602625538016
    vertex 157.4176108265748 121.12550128741624 59.63602625538016
    vertex 157.08206956214204 121.46104255184953 60.78163579114317
  endloop
endfacet
facet normal 0.7071067811871153 0.7071067811859797 5.196795055407446e-16
  outer loop
    vertex 157.4176108265748 121.12550128741624 64.38602625538016
    vertex 157.08206956214204 121.46104255184953 60.78163579114317
    vertex 157.08206956214204 121.46104255184953 63.24041671961715
  endloop
endfacet
facet normal 0.7071067811871153 0.7071067811859797 5.196795055407446e-16
  outer loop
    vertex 157.08206956214204 121.46104255184953 63.24041671961715
    vertex 157.08206956214204 121.46104255184953 60.78163579114317
    vertex 156.96762268549406 121.57548942849768 62.01102625538016
  endloop
endfacet
facet normal 0.7071067811871153 0.7071067811859797 5.196795055407446e-16
  outer loop
    vertex 163.57069023011292 114.97242188386822 60.78163579114317
    vertex 163.57069023011292 114.97242188386822 63.24041671961715
    vertex 163.68513710676086 114.85797500722008 62.01102625538016
  endloop
endfacet
facet normal 0.7071067811871153 0.7071067811859797 5.196795055407446e-16
  outer loop
    vertex 163.57069023011292 114.97242188386822 63.24041671961715
    vertex 163.57069023011292 114.97242188386822 60.78163579114317
    vertex 163.23514896568017 115.30796314830154 59.63602625538016
  endloop
endfacet
facet normal 0.7071067811871153 0.7071067811859797 5.196795055407446e-16
  outer loop
    vertex 163.57069023011292 114.97242188386822 63.24041671961715
    vertex 163.23514896568017 115.30796314830154 59.63602625538016
    vertex 163.23514896568017 115.30796314830154 64.38602625538016
  endloop
endfacet
facet normal 0.7071067811871153 0.7071067811859797 5.196795055407446e-16
  outer loop
    vertex 163.23514896568017 115.30796314830154 64.38602625538016
    vertex 163.23514896568017 115.30796314830154 59.63602625538016
    vertex 162.70137989612556 115.84173221785697 58.65226904474406
  endloop
endfacet
facet normal 0.7071067811871153 0.7071067811859797 5.196795055407446e-16
  outer loop
    vertex 163.23514896568017 115.30796314830154 64.38602625538016
    vertex 162.70137989612556 115.84173221785697 58.65226904474406
    vertex 162.70137989612556 115.84173221785697 65.36978346601626
  endloop
endfacet
facet normal 0.7071067811871153 0.7071067811859797 5.196795055407446e-16
  outer loop
    vertex 162.70137989612556 115.84173221785697 65.36978346601626
    vertex 162.70137989612556 115.84173221785697 58.65226904474406
    vertex 162.45137989612542 116.09173221785699 58.380977986450276
  endloop
endfacet
facet normal 0.7071067811871153 0.7071067811859797 5.196795055407446e-16
  outer loop
    vertex 162.70137989612556 115.84173221785697 65.36978346601626
    vertex 162.45137989612542 116.09173221785699 58.380977986450276
    vertex 162.00575850144418 116.53735361253948 66.12464692335622
  endloop
endfacet
facet normal 0.7071067811871153 0.7071067811859797 5.196795055407446e-16
  outer loop
    vertex 162.00575850144418 116.53735361253948 66.12464692335622
    vertex 162.45137989612542 116.09173221785699 58.380977986450276
    vertex 162.23556820532963 116.30754390865366 62.01102625538016
  endloop
endfacet
facet normal 0.7071067811871153 0.7071067811859797 5.196795055407446e-16
  outer loop
    vertex 162.00575850144418 116.53735361253948 66.12464692335622
    vertex 162.23556820532963 116.30754390865366 62.01102625538016
    vertex 162.170514191235 116.3725979227484 62.709837677156955
  endloop
endfacet
facet normal 0.7071067811871153 0.7071067811859797 5.196795055407446e-16
  outer loop
    vertex 162.00575850144418 116.53735361253948 66.12464692335622
    vertex 162.170514191235 116.3725979227484 62.709837677156955
    vertex 161.97978547250483 116.56332664147888 63.36102625538017
  endloop
endfacet
facet normal 0.7071067811871153 0.7071067811859797 5.196795055407446e-16
  outer loop
    vertex 162.00575850144418 116.53735361253948 66.12464692335622
    vertex 161.97978547250483 116.56332664147888 63.36102625538017
    vertex 161.19569023011485 117.34742188387011 66.59917393025324
  endloop
endfacet
facet normal 0.7071067811871153 0.7071067811859797 5.196795055407446e-16
  outer loop
    vertex 161.19569023011485 117.34742188387011 66.59917393025324
    vertex 161.97978547250483 116.56332664147888 63.36102625538017
    vertex 161.6763798961264 116.86673221785779 63.920214564583844
  endloop
endfacet
facet normal 0.7071067811871153 0.7071067811859797 5.196795055407446e-16
  outer loop
    vertex 161.19569023011485 117.34742188387011 66.59917393025324
    vertex 161.6763798961264 116.86673221785779 63.920214564583844
    vertex 161.28097405072856 117.26213806325626 64.34929484559818
  endloop
endfacet
facet normal 0.7071067811871153 0.7071067811859797 5.196795055407446e-16
  outer loop
    vertex 161.19569023011485 117.34742188387011 66.59917393025324
    vertex 161.28097405072856 117.26213806325626 64.34929484559818
    vertex 160.82051419123607 117.72259792274949 64.61902598636064
  endloop
endfacet
facet normal 0.7071067811871153 0.7071067811859797 5.196795055407446e-16
  outer loop
    vertex 161.19569023011485 117.34742188387011 66.59917393025324
    vertex 160.82051419123607 117.72259792274949 64.61902598636064
    vertex 160.3263798961275 118.21673221785888 66.76102625538016
  endloop
endfacet
facet normal 0.7071067811871153 0.7071067811859797 5.196795055407446e-16
  outer loop
    vertex 160.3263798961275 118.21673221785888 66.76102625538016
    vertex 160.82051419123607 117.72259792274949 64.61902598636064
    vertex 160.3263798961275 118.21673221785888 64.71102625538018
  endloop
endfacet
facet normal 0.7071067811871153 0.7071067811859797 5.196795055407446e-16
  outer loop
    vertex 160.3263798961275 118.21673221785888 66.76102625538016
    vertex 160.3263798961275 118.21673221785888 64.71102625538018
    vertex 159.83224560101888 118.71086651296827 64.61902598636064
  endloop
endfacet
facet normal 0.7071067811871153 0.7071067811859797 5.196795055407446e-16
  outer loop
    vertex 160.3263798961275 118.21673221785888 66.76102625538016
    vertex 159.83224560101888 118.71086651296827 64.61902598636064
    vertex 159.45706956214013 119.08604255184763 66.59917393025324
  endloop
endfacet
facet normal 0.7071067811871153 0.7071067811859797 5.196795055407446e-16
  outer loop
    vertex 159.45706956214013 119.08604255184763 66.59917393025324
    vertex 159.83224560101888 118.71086651296827 64.61902598636064
    vertex 159.3717857415264 119.17132637246148 64.34929484559818
  endloop
endfacet
facet normal 0.7071067811871153 0.7071067811859797 5.196795055407446e-16
  outer loop
    vertex 159.45706956214013 119.08604255184763 66.59917393025324
    vertex 159.3717857415264 119.17132637246148 64.34929484559818
    vertex 158.64700129081078 119.89611082317828 66.12464692335622
  endloop
endfacet
facet normal 0.7071067811871153 0.7071067811859797 5.196795055407446e-16
  outer loop
    vertex 158.64700129081078 119.89611082317828 66.12464692335622
    vertex 159.3717857415264 119.17132637246148 64.34929484559818
    vertex 158.97637989612855 119.56673221785996 63.920214564583844
  endloop
endfacet
facet normal 0.7071067811871153 0.7071067811859797 5.196795055407446e-16
  outer loop
    vertex 158.64700129081078 119.89611082317828 66.12464692335622
    vertex 158.97637989612855 119.56673221785996 63.920214564583844
    vertex 158.67297431975013 119.87013779423887 63.36102625538017
  endloop
endfacet
facet normal 0.7071067811871153 0.7071067811859797 5.196795055407446e-16
  outer loop
    vertex 158.64700129081078 119.89611082317828 66.12464692335622
    vertex 158.67297431975013 119.87013779423887 63.36102625538017
    vertex 158.48224560101997 120.06086651296935 62.709837677156955
  endloop
endfacet
facet normal 0.7071067811871153 0.7071067811859797 5.196795055407446e-16
  outer loop
    vertex 158.64700129081078 119.89611082317828 66.12464692335622
    vertex 158.48224560101997 120.06086651296935 62.709837677156955
    vertex 158.201379896129 120.3417322178602 65.64107452431008
  endloop
endfacet
facet normal 0.7071067811871153 0.7071067811859797 5.196795055407446e-16
  outer loop
    vertex 158.201379896129 120.3417322178602 65.64107452431008
    vertex 158.48224560101997 120.06086651296935 62.709837677156955
    vertex 158.41719158692533 120.1259205270641 62.01102625538016
  endloop
endfacet
facet normal 0.09229595564117278 -0.09229595564132241 -0.9914448613738123
  outer loop
    vertex 157.2013798961248 115.0917322178612 57.26102625538016
    vertex 155.94569023010953 112.09742188387325 57.42287858050707
    vertex 155.07637989612218 112.966732217862 57.26102625538016
  endloop
endfacet
facet normal 0.09229595564117278 -0.09229595564132241 -0.9914448613738123
  outer loop
    vertex 155.94569023010953 112.09742188387325 57.42287858050707
    vertex 157.2013798961248 115.0917322178612 57.26102625538016
    vertex 158.94000056410098 115.09173221785981 57.42287858050707
  endloop
endfacet
facet normal 0.0 0.0 1.0
  outer loop
    vertex 158.20137989612138 110.84173221786006 100.01102625538013
    vertex 157.201379896129 120.34173221786092 100.01102625538013
    vertex 157.20137989612138 110.84173221786087 100.01102625538013
  endloop
endfacet
facet normal 0.0 0.0 1.0
  outer loop
    vertex 157.201379896129 120.34173221786092 100.01102625538013
    vertex 158.20137989612138 110.84173221786006 100.01102625538013
    vertex 158.201379896129 120.34173221786013 100.01102625538013
  endloop
endfacet
facet normal 0.4304593345765288 -0.43045933457722046 0.7933533402912404
  outer loop
    vertex 157.2013798961221 111.73297500722511 66.12464692335622
    vertex 156.7557585014389 111.2873536125426 66.12464692335622
    vertex 157.20137989612132 110.84173221785937 65.64107452430896
  endloop
endfacet
facet normal -0.27059805007289817 0.270598050073333 0.9238795325112769
  outer loop
    vertex 154.20706956213482 113.83604255185077 66.59917393025324
    vertex 157.20137989612746 118.45048942849729 66.12464692335622
    vertex 153.3970012908055 114.64611082318142 66.12464692335622
  endloop
endfacet
facet normal -0.27059805007289817 0.270598050073333 0.9238795325112769
  outer loop
    vertex 157.20137989612746 118.45048942849729 66.12464692335622
    vertex 154.20706956213482 113.83604255185077 66.59917393025324
    vertex 157.20137989612616 116.83035288583729 66.59917393025324
  endloop
endfacet
facet normal -0.430459334576521 0.4304593345772034 0.793353340291254
  outer loop
    vertex 153.3970012908055 114.64611082318142 66.12464692335622
    vertex 157.20137989612857 119.84173221786116 65.36978346601634
    vertex 152.7013798961241 115.34173221786394 65.36978346601626
  endloop
endfacet
facet normal -0.430459334576521 0.4304593345772034 0.793353340291254
  outer loop
    vertex 157.20137989612857 119.84173221786116 65.36978346601634
    vertex 153.3970012908055 114.64611082318142 66.12464692335622
    vertex 157.20137989612746 118.45048942849729 66.12464692335622
  endloop
endfacet
facet normal 0.2705980500729096 -0.27059805007334264 -0.9238795325112706
  outer loop
    vertex 158.94000056410098 115.09173221785981 57.42287858050707
    vertex 156.7557585014389 111.2873536125426 57.89740558740409
    vertex 155.94569023010953 112.09742188387325 57.42287858050707
  endloop
endfacet
facet normal 0.2705980500729096 -0.27059805007334264 -0.9238795325112706
  outer loop
    vertex 156.7557585014389 111.2873536125426 57.89740558740409
    vertex 158.94000056410098 115.09173221785981 57.42287858050707
    vertex 160.56013710676095 115.09173221785852 57.89740558740414
  endloop
endfacet
facet normal -0.09229595564115686 0.09229595564131222 0.9914448613738147
  outer loop
    vertex 155.07637989612218 112.966732217862 66.76102625538016
    vertex 157.20137989612616 116.83035288583729 66.59917393025324
    vertex 154.20706956213482 113.83604255185077 66.59917393025324
  endloop
endfacet
facet normal -0.09229595564115686 0.09229595564131222 0.9914448613738147
  outer loop
    vertex 157.20137989612616 116.83035288583729 66.59917393025324
    vertex 155.07637989612218 112.966732217862 66.76102625538016
    vertex 157.20137989612476 115.09173221786119 66.76102625538012
  endloop
endfacet
facet normal 0.43045933457651403 -0.4304593345772245 -0.7933533402912464
  outer loop
    vertex 162.45137989612542 116.09173221785699 58.380977986450276
    vertex 161.56013710676183 116.09173221785778 57.89740558740414
    vertex 162.00575850144418 116.53735361253948 57.89740558740409
  endloop
endfacet
facet normal -0.4304593345766268 0.4304593345771754 0.7933533402912119
  outer loop
    vertex 158.201379896129 120.3417322178602 65.64107452431008
    vertex 157.95137989612937 120.5917322178608 65.36978346601626
    vertex 157.7013798961287 120.34173221786051 65.36978346601622
  endloop
endfacet
facet normal 0.4304593345764899 -0.4304593345772914 -0.793353340291223
  outer loop
    vertex 162.70137989612556 115.84173221785697 58.65226904474406
    vertex 162.45137989612508 115.59173221785693 58.65226904474406
    vertex 162.45137989612542 116.09173221785699 58.380977986450276
  endloop
endfacet
facet normal -0.7010573846494121 0.7010573846505388 0.13052619222007783
  outer loop
    vertex 159.61056820532733 113.68254390865556 62.01102625538016
    vertex 162.170514191235 116.3725979227484 61.31221483360336
    vertex 159.54551419123268 113.7475979227503 61.31221483360336
  endloop
endfacet
facet normal -0.7010573846494121 0.7010573846505388 0.13052619222007783
  outer loop
    vertex 162.170514191235 116.3725979227484 61.31221483360336
    vertex 159.61056820532733 113.68254390865556 62.01102625538016
    vertex 162.23556820532963 116.30754390865366 62.01102625538016
  endloop
endfacet
facet normal 0.5609855267964676 -0.5609855267973691 -0.608761429008744
  outer loop
    vertex 158.67297431975013 119.87013779423887 63.36102625538017
    vertex 156.35137989612625 116.94173221786187 63.920214564583844
    vertex 156.04797431974782 117.24513779424078 63.36102625538017
  endloop
endfacet
facet normal 0.5609855267964676 -0.5609855267973691 -0.608761429008744
  outer loop
    vertex 156.35137989612625 116.94173221786187 63.920214564583844
    vertex 158.67297431975013 119.87013779423887 63.36102625538017
    vertex 158.97637989612855 119.56673221785996 63.920214564583844
  endloop
endfacet
facet normal 0.4304593345765501 -0.43045933457724184 0.7933533402912174
  outer loop
    vertex 156.7467857415241 116.5463263724634 59.67275766516214
    vertex 158.97637989612855 119.56673221785996 60.101837946176474
    vertex 156.35137989612625 116.94173221786187 60.101837946176474
  endloop
endfacet
facet normal 0.4304593345765501 -0.43045933457724184 0.7933533402912174
  outer loop
    vertex 158.97637989612855 119.56673221785996 60.101837946176474
    vertex 156.7467857415241 116.5463263724634 59.67275766516214
    vertex 159.3717857415264 119.17132637246148 59.67275766516214
  endloop
endfacet
facet normal -0.4304593345765501 0.43045933457724184 0.7933533402912174
  outer loop
    vertex 159.05137989612408 114.24173221785969 60.101837946176474
    vertex 161.28097405072856 117.26213806325626 59.67275766516214
    vertex 158.65597405072626 114.63713806325816 59.67275766516214
  endloop
endfacet
facet normal -0.4304593345765501 0.43045933457724184 0.7933533402912174
  outer loop
    vertex 161.28097405072856 117.26213806325626 59.67275766516214
    vertex 159.05137989612408 114.24173221785969 60.101837946176474
    vertex 161.6763798961264 116.86673221785779 60.101837946176474
  endloop
endfacet
facet normal 0.6532814824376564 -0.6532814824387062 -0.38268343236511393
  outer loop
    vertex 163.57069023011292 114.97242188386822 60.78163579114317
    vertex 157.98514896567485 110.05796314830467 59.63602625538016
    vertex 163.23514896568017 115.30796314830154 59.63602625538016
  endloop
endfacet
facet normal 0.6532814824376564 -0.6532814824387062 -0.38268343236511393
  outer loop
    vertex 157.98514896567485 110.05796314830467 59.63602625538016
    vertex 163.57069023011292 114.97242188386822 60.78163579114317
    vertex 158.32069023010763 109.72242188387136 60.78163579114317
  endloop
endfacet
facet normal -0.5609855267964846 0.5609855267973859 0.608761429008713
  outer loop
    vertex 152.7013798961241 115.34173221786394 65.36978346601626
    vertex 157.4176108265748 121.12550128741624 64.38602625538016
    vertex 152.1676108265695 115.87550128741937 64.38602625538016
  endloop
endfacet
facet normal -0.5609855267964846 0.5609855267973859 0.608761429008713
  outer loop
    vertex 157.4176108265748 121.12550128741624 64.38602625538016
    vertex 152.7013798961241 115.34173221786394 65.36978346601626
    vertex 157.201379896129 120.3417322178609 64.9090237167414
  endloop
endfacet
facet normal -0.5609855267964846 0.5609855267973859 0.608761429008713
  outer loop
    vertex 157.201379896129 120.3417322178609 64.9090237167414
    vertex 152.7013798961241 115.34173221786394 65.36978346601626
    vertex 157.20137989612857 119.84173221786116 65.36978346601634
  endloop
endfacet
facet normal -0.5609855267964846 0.5609855267973859 0.608761429008713
  outer loop
    vertex 157.4176108265748 121.12550128741624 64.38602625538016
    vertex 157.201379896129 120.3417322178609 64.9090237167414
    vertex 157.7013798961287 120.34173221786051 65.36978346601622
  endloop
endfacet
facet normal -0.5609855267964846 0.5609855267973859 0.608761429008713
  outer loop
    vertex 157.4176108265748 121.12550128741624 64.38602625538016
    vertex 157.7013798961287 120.34173221786051 65.36978346601622
    vertex 157.95137989612937 120.5917322178608 65.36978346601626
  endloop
endfacet
facet normal 0.27059805007284404 -0.27059805007327886 0.9238795325113085
  outer loop
    vertex 157.20724560101658 116.08586651297017 59.40302652439968
    vertex 159.3717857415264 119.17132637246148 59.67275766516214
    vertex 156.7467857415241 116.5463263724634 59.67275766516214
  endloop
endfacet
facet normal 0.27059805007284404 -0.27059805007327886 0.9238795325113085
  outer loop
    vertex 159.3717857415264 119.17132637246148 59.67275766516214
    vertex 157.20724560101658 116.08586651297017 59.40302652439968
    vertex 159.83224560101888 118.71086651296827 59.40302652439968
  endloop
endfacet
facet normal -0.6532814824376787 0.6532814824387285 0.3826834323650374
  outer loop
    vertex 159.54551419123268 113.7475979227503 61.31221483360336
    vertex 161.97978547250483 116.56332664147888 60.66102625538015
    vertex 159.3547854725025 113.93832664148078 60.66102625538015
  endloop
endfacet
facet normal -0.6532814824376787 0.6532814824387285 0.3826834323650374
  outer loop
    vertex 161.97978547250483 116.56332664147888 60.66102625538015
    vertex 159.54551419123268 113.7475979227503 61.31221483360336
    vertex 162.170514191235 116.3725979227484 61.31221483360336
  endloop
endfacet
facet normal 0.6532814824376564 -0.6532814824387062 0.38268343236511393
  outer loop
    vertex 163.23514896568017 115.30796314830154 64.38602625538016
    vertex 158.32069023010763 109.72242188387136 63.24041671961715
    vertex 163.57069023011292 114.97242188386822 63.24041671961715
  endloop
endfacet
facet normal 0.6532814824376564 -0.6532814824387062 0.38268343236511393
  outer loop
    vertex 158.32069023010763 109.72242188387136 63.24041671961715
    vertex 163.23514896568017 115.30796314830154 64.38602625538016
    vertex 157.98514896567485 110.05796314830467 64.38602625538016
  endloop
endfacet
facet normal -0.7010573846494158 0.7010573846505423 -0.13052619222003983
  outer loop
    vertex 151.71762268548878 116.32548942850082 62.01102625538016
    vertex 157.08206956214204 121.46104255184953 60.78163579114317
    vertex 151.83206956213675 116.21104255185269 60.78163579114317
  endloop
endfacet
facet normal -0.7010573846494158 0.7010573846505423 -0.13052619222003983
  outer loop
    vertex 157.08206956214204 121.46104255184953 60.78163579114317
    vertex 151.71762268548878 116.32548942850082 62.01102625538016
    vertex 156.96762268549406 121.57548942849768 62.01102625538016
  endloop
endfacet
facet normal -0.4304593345765501 0.43045933457724184 -0.7933533402912174
  outer loop
    vertex 161.28097405072856 117.26213806325626 64.34929484559818
    vertex 159.05137989612408 114.24173221785969 63.920214564583844
    vertex 158.65597405072626 114.63713806325816 64.34929484559818
  endloop
endfacet
facet normal -0.4304593345765501 0.43045933457724184 -0.7933533402912174
  outer loop
    vertex 159.05137989612408 114.24173221785969 63.920214564583844
    vertex 161.28097405072856 117.26213806325626 64.34929484559818
    vertex 161.6763798961264 116.86673221785779 63.920214564583844
  endloop
endfacet
facet normal -0.5609855267964676 0.5609855267973691 0.608761429008744
  outer loop
    vertex 159.3547854725025 113.93832664148078 60.66102625538015
    vertex 161.6763798961264 116.86673221785779 60.101837946176474
    vertex 159.05137989612408 114.24173221785969 60.101837946176474
  endloop
endfacet
facet normal -0.5609855267964676 0.5609855267973691 0.608761429008744
  outer loop
    vertex 161.6763798961264 116.86673221785779 60.101837946176474
    vertex 159.3547854725025 113.93832664148078 60.66102625538015
    vertex 161.97978547250483 116.56332664147888 60.66102625538015
  endloop
endfacet
facet normal 0.6532814824376787 -0.6532814824387285 -0.3826834323650374
  outer loop
    vertex 158.67297431975013 119.87013779423887 63.36102625538017
    vertex 155.85724560101764 117.43586651297126 62.709837677156955
    vertex 158.48224560101997 120.06086651296935 62.709837677156955
  endloop
endfacet
facet normal 0.6532814824376787 -0.6532814824387285 -0.3826834323650374
  outer loop
    vertex 155.85724560101764 117.43586651297126 62.709837677156955
    vertex 158.67297431975013 119.87013779423887 63.36102625538017
    vertex 156.04797431974782 117.24513779424078 63.36102625538017
  endloop
endfacet
facet normal 0.5609855267964786 -0.5609855267973779 -0.6087614290087258
  outer loop
    vertex 161.9513798961248 115.0917322178574 58.65226904474411
    vertex 157.98514896567485 110.05796314830467 59.63602625538016
    vertex 157.45137989612027 110.59173221786011 58.65226904474406
  endloop
endfacet
facet normal 0.5609855267964786 -0.5609855267973779 -0.6087614290087258
  outer loop
    vertex 157.98514896567485 110.05796314830467 59.63602625538016
    vertex 161.9513798961248 115.0917322178574 58.65226904474411
    vertex 162.45137989612473 115.09173221785697 59.1130287940191
  endloop
endfacet
facet normal 0.5609855267964786 -0.5609855267973779 -0.6087614290087258
  outer loop
    vertex 157.98514896567485 110.05796314830467 59.63602625538016
    vertex 162.45137989612473 115.09173221785697 59.1130287940191
    vertex 163.23514896568017 115.30796314830154 59.63602625538016
  endloop
endfacet
facet normal 0.5609855267964786 -0.5609855267973779 -0.6087614290087258
  outer loop
    vertex 163.23514896568017 115.30796314830154 59.63602625538016
    vertex 162.45137989612473 115.09173221785697 59.1130287940191
    vertex 162.45137989612508 115.59173221785693 58.65226904474406
  endloop
endfacet
facet normal 0.5609855267964786 -0.5609855267973779 -0.6087614290087258
  outer loop
    vertex 163.23514896568017 115.30796314830154 59.63602625538016
    vertex 162.45137989612508 115.59173221785693 58.65226904474406
    vertex 162.70137989612556 115.84173221785697 58.65226904474406
  endloop
endfacet
facet normal -0.27059805007284404 0.27059805007327886 0.9238795325113085
  outer loop
    vertex 158.65597405072626 114.63713806325816 59.67275766516214
    vertex 160.82051419123607 117.72259792274949 59.40302652439968
    vertex 158.19551419123374 115.09759792275139 59.40302652439968
  endloop
endfacet
facet normal -0.27059805007284404 0.27059805007327886 0.9238795325113085
  outer loop
    vertex 160.82051419123607 117.72259792274949 59.40302652439968
    vertex 158.65597405072626 114.63713806325816 59.67275766516214
    vertex 161.28097405072856 117.26213806325626 59.67275766516214
  endloop
endfacet
facet normal 0.4304593345765501 -0.43045933457724184 -0.7933533402912174
  outer loop
    vertex 158.97637989612855 119.56673221785996 63.920214564583844
    vertex 156.7467857415241 116.5463263724634 64.34929484559818
    vertex 156.35137989612625 116.94173221786187 63.920214564583844
  endloop
endfacet
facet normal 0.4304593345765501 -0.43045933457724184 -0.7933533402912174
  outer loop
    vertex 156.7467857415241 116.5463263724634 64.34929484559818
    vertex 158.97637989612855 119.56673221785996 63.920214564583844
    vertex 159.3717857415264 119.17132637246148 64.34929484559818
  endloop
endfacet
facet normal -0.09229595564120167 0.09229595564135 0.9914448613738072
  outer loop
    vertex 158.19551419123374 115.09759792275139 59.40302652439968
    vertex 160.3263798961275 118.21673221785888 59.31102625538014
    vertex 157.70137989612516 115.59173221786078 59.31102625538014
  endloop
endfacet
facet normal -0.09229595564120167 0.09229595564135 0.9914448613738072
  outer loop
    vertex 160.3263798961275 118.21673221785888 59.31102625538014
    vertex 158.19551419123374 115.09759792275139 59.40302652439968
    vertex 160.82051419123607 117.72259792274949 59.40302652439968
  endloop
endfacet
facet normal -0.6532814824376564 0.6532814824387062 0.38268343236511393
  outer loop
    vertex 152.1676108265695 115.87550128741937 64.38602625538016
    vertex 157.08206956214204 121.46104255184953 63.24041671961715
    vertex 151.83206956213675 116.21104255185269 63.24041671961715
  endloop
endfacet
facet normal -0.6532814824376564 0.6532814824387062 0.38268343236511393
  outer loop
    vertex 157.08206956214204 121.46104255184953 63.24041671961715
    vertex 152.1676108265695 115.87550128741937 64.38602625538016
    vertex 157.4176108265748 121.12550128741624 64.38602625538016
  endloop
endfacet
facet normal 0.7010573846494158 -0.7010573846505423 0.13052619222003983
  outer loop
    vertex 163.57069023011292 114.97242188386822 63.24041671961715
    vertex 158.43513710675558 109.6079750072232 62.01102625538016
    vertex 163.68513710676086 114.85797500722008 62.01102625538016
  endloop
endfacet
facet normal 0.7010573846494158 -0.7010573846505423 0.13052619222003983
  outer loop
    vertex 158.43513710675558 109.6079750072232 62.01102625538016
    vertex 163.57069023011292 114.97242188386822 63.24041671961715
    vertex 158.32069023010763 109.72242188387136 63.24041671961715
  endloop
endfacet
facet normal -0.6532814824376564 0.6532814824387062 -0.38268343236511393
  outer loop
    vertex 151.83206956213675 116.21104255185269 60.78163579114317
    vertex 157.4176108265748 121.12550128741624 59.63602625538016
    vertex 152.1676108265695 115.87550128741937 59.63602625538016
  endloop
endfacet
facet normal -0.6532814824376564 0.6532814824387062 -0.38268343236511393
  outer loop
    vertex 157.4176108265748 121.12550128741624 59.63602625538016
    vertex 151.83206956213675 116.21104255185269 60.78163579114317
    vertex 157.08206956214204 121.46104255184953 60.78163579114317
  endloop
endfacet
facet normal -0.5609855267964836 0.5609855267973858 -0.6087614290087138
  outer loop
    vertex 152.1676108265695 115.87550128741937 59.63602625538016
    vertex 152.9513798961253 116.0917322178647 59.113028794019556
    vertex 152.7013798961241 115.34173221786394 58.65226904474406
  endloop
endfacet
facet normal -0.5609855267964836 0.5609855267973858 -0.6087614290087138
  outer loop
    vertex 152.9513798961253 116.0917322178647 59.113028794019556
    vertex 152.1676108265695 115.87550128741937 59.63602625538016
    vertex 157.4176108265748 121.12550128741624 59.63602625538016
  endloop
endfacet
facet normal -0.5609855267964836 0.5609855267973858 -0.6087614290087138
  outer loop
    vertex 152.7013798961241 115.34173221786394 58.65226904474406
    vertex 152.9513798961253 116.0917322178647 59.113028794019556
    vertex 152.95137989612496 115.59173221786448 58.65226904474411
  endloop
endfacet
facet normal -0.5609855267964836 0.5609855267973858 -0.6087614290087138
  outer loop
    vertex 152.9513798961253 116.0917322178647 59.113028794019556
    vertex 157.4176108265748 121.12550128741624 59.63602625538016
    vertex 153.45137989612553 116.0917322178643 58.65226904474415
  endloop
endfacet
facet normal -0.5609855267964836 0.5609855267973858 -0.6087614290087138
  outer loop
    vertex 153.45137989612553 116.0917322178643 58.65226904474415
    vertex 157.4176108265748 121.12550128741624 59.63602625538016
    vertex 157.95137989612937 120.5917322178608 58.65226904474406
  endloop
endfacet
facet normal -0.7010573846494158 0.7010573846505423 0.13052619222003983
  outer loop
    vertex 151.83206956213675 116.21104255185269 63.24041671961715
    vertex 156.96762268549406 121.57548942849768 62.01102625538016
    vertex 151.71762268548878 116.32548942850082 62.01102625538016
  endloop
endfacet
facet normal -0.7010573846494158 0.7010573846505423 0.13052619222003983
  outer loop
    vertex 156.96762268549406 121.57548942849768 62.01102625538016
    vertex 151.83206956213675 116.21104255185269 63.24041671961715
    vertex 157.08206956214204 121.46104255184953 63.24041671961715
  endloop
endfacet
facet normal 0.6532814824376787 -0.6532814824387285 0.3826834323650374
  outer loop
    vertex 158.48224560101997 120.06086651296935 61.31221483360336
    vertex 156.04797431974782 117.24513779424078 60.66102625538015
    vertex 158.67297431975013 119.87013779423887 60.66102625538015
  endloop
endfacet
facet normal 0.6532814824376787 -0.6532814824387285 0.3826834323650374
  outer loop
    vertex 156.04797431974782 117.24513779424078 60.66102625538015
    vertex 158.48224560101997 120.06086651296935 61.31221483360336
    vertex 155.85724560101764 117.43586651297126 61.31221483360336
  endloop
endfacet
facet normal 0.7010573846494121 -0.7010573846505388 -0.13052619222007783
  outer loop
    vertex 158.48224560101997 120.06086651296935 62.709837677156955
    vertex 155.792191586923 117.500920527066 62.01102625538016
    vertex 158.41719158692533 120.1259205270641 62.01102625538016
  endloop
endfacet
facet normal 0.7010573846494121 -0.7010573846505388 -0.13052619222007783
  outer loop
    vertex 155.792191586923 117.500920527066 62.01102625538016
    vertex 158.48224560101997 120.06086651296935 62.709837677156955
    vertex 155.85724560101764 117.43586651297126 62.709837677156955
  endloop
endfacet
facet normal 0.7010573846494158 -0.7010573846505423 -0.13052619222003983
  outer loop
    vertex 163.68513710676086 114.85797500722008 62.01102625538016
    vertex 158.32069023010763 109.72242188387136 60.78163579114317
    vertex 163.57069023011292 114.97242188386822 60.78163579114317
  endloop
endfacet
facet normal 0.7010573846494158 -0.7010573846505423 -0.13052619222003983
  outer loop
    vertex 158.32069023010763 109.72242188387136 60.78163579114317
    vertex 163.68513710676086 114.85797500722008 62.01102625538016
    vertex 158.43513710675558 109.6079750072232 62.01102625538016
  endloop
endfacet
facet normal 0.5609855267964889 -0.5609855267973878 0.608761429008707
  outer loop
    vertex 157.98514896567485 110.05796314830467 64.38602625538016
    vertex 157.70137989612095 110.84173221786047 65.36978346601639
    vertex 157.45137989612027 110.59173221786011 65.36978346601626
  endloop
endfacet
facet normal 0.5609855267964889 -0.5609855267973878 0.608761429008707
  outer loop
    vertex 157.70137989612095 110.84173221786047 65.36978346601639
    vertex 157.98514896567485 110.05796314830467 64.38602625538016
    vertex 158.20137989612144 110.84173221786006 64.90902371674068
  endloop
endfacet
facet normal 0.5609855267964889 -0.5609855267973878 0.608761429008707
  outer loop
    vertex 158.20137989612144 110.84173221786006 64.90902371674068
    vertex 157.98514896567485 110.05796314830467 64.38602625538016
    vertex 163.23514896568017 115.30796314830154 64.38602625538016
  endloop
endfacet
facet normal 0.5609855267964889 -0.5609855267973878 0.608761429008707
  outer loop
    vertex 158.20137989612144 110.84173221786006 64.90902371674068
    vertex 163.23514896568017 115.30796314830154 64.38602625538016
    vertex 158.2013798961218 111.34173221786044 65.3697834660163
  endloop
endfacet
facet normal 0.5609855267964889 -0.5609855267973878 0.608761429008707
  outer loop
    vertex 158.2013798961218 111.34173221786044 65.3697834660163
    vertex 163.23514896568017 115.30796314830154 64.38602625538016
    vertex 162.70137989612556 115.84173221785697 65.36978346601626
  endloop
endfacet
facet normal 0.5609855267964676 -0.5609855267973691 0.608761429008744
  outer loop
    vertex 156.35137989612625 116.94173221786187 60.101837946176474
    vertex 158.67297431975013 119.87013779423887 60.66102625538015
    vertex 156.04797431974782 117.24513779424078 60.66102625538015
  endloop
endfacet
facet normal 0.5609855267964676 -0.5609855267973691 0.608761429008744
  outer loop
    vertex 158.67297431975013 119.87013779423887 60.66102625538015
    vertex 156.35137989612625 116.94173221786187 60.101837946176474
    vertex 158.97637989612855 119.56673221785996 60.101837946176474
  endloop
endfacet
facet normal -0.6532814824376787 0.6532814824387285 -0.3826834323650374
  outer loop
    vertex 159.3547854725025 113.93832664148078 63.36102625538017
    vertex 162.170514191235 116.3725979227484 62.709837677156955
    vertex 159.54551419123268 113.7475979227503 62.709837677156955
  endloop
endfacet
facet normal -0.6532814824376787 0.6532814824387285 -0.3826834323650374
  outer loop
    vertex 162.170514191235 116.3725979227484 62.709837677156955
    vertex 159.3547854725025 113.93832664148078 63.36102625538017
    vertex 161.97978547250483 116.56332664147888 63.36102625538017
  endloop
endfacet
facet normal 0.4304593345765261 -0.43045933457721314 0.793353340291246
  outer loop
    vertex 162.70137989612556 115.84173221785697 65.36978346601626
    vertex 158.20137989612294 112.73297500722434 66.12464692335622
    vertex 158.2013798961218 111.34173221786044 65.3697834660163
  endloop
endfacet
facet normal 0.4304593345765261 -0.43045933457721314 0.793353340291246
  outer loop
    vertex 158.20137989612294 112.73297500722434 66.12464692335622
    vertex 162.70137989612556 115.84173221785697 65.36978346601626
    vertex 162.00575850144418 116.53735361253948 66.12464692335622
  endloop
endfacet
facet normal -0.2705980500728981 0.27059805007333293 0.9238795325112769
  outer loop
    vertex 159.45706956214013 119.08604255184763 66.59917393025324
    vertex 158.20137989612832 119.45048942849651 66.12464692335622
    vertex 158.201379896127 117.8303528858365 66.59917393025324
  endloop
endfacet
facet normal -0.2705980500728981 0.27059805007333293 0.9238795325112769
  outer loop
    vertex 158.20137989612832 119.45048942849651 66.12464692335622
    vertex 159.45706956214013 119.08604255184763 66.59917393025324
    vertex 158.64700129081078 119.89611082317828 66.12464692335622
  endloop
endfacet
facet normal -0.09229595564117375 0.09229595564130648 0.9914448613738136
  outer loop
    vertex 160.3263798961275 118.21673221785888 66.76102625538016
    vertex 158.201379896127 117.8303528858365 66.59917393025324
    vertex 158.2013798961256 116.09173221786043 66.76102625538012
  endloop
endfacet
facet normal -0.09229595564117375 0.09229595564130648 0.9914448613738136
  outer loop
    vertex 158.201379896127 117.8303528858365 66.59917393025324
    vertex 160.3263798961275 118.21673221785888 66.76102625538016
    vertex 159.45706956214013 119.08604255184763 66.59917393025324
  endloop
endfacet
facet normal 1.0 -8.001932449985816e-13 4.845929381966067e-16
  outer loop
    vertex 158.2013798961218 111.34173221786044 65.3697834660163
    vertex 158.20137989612138 110.84173221786006 100.01102625538013
    vertex 158.20137989612144 110.84173221786006 64.90902371674068
  endloop
endfacet
facet normal 1.0 -8.001932449985816e-13 4.845929381966067e-16
  outer loop
    vertex 158.20137989612138 110.84173221786006 100.01102625538013
    vertex 158.2013798961218 111.34173221786044 65.3697834660163
    vertex 158.201379896129 120.34173221786013 100.01102625538013
  endloop
endfacet
facet normal 1.0 -8.001932449985816e-13 4.845929381966067e-16
  outer loop
    vertex 158.201379896129 120.34173221786013 100.01102625538013
    vertex 158.2013798961218 111.34173221786044 65.3697834660163
    vertex 158.20137989612294 112.73297500722434 66.12464692335622
  endloop
endfacet
facet normal 1.0 -8.001932449985816e-13 4.845929381966067e-16
  outer loop
    vertex 158.201379896129 120.34173221786013 100.01102625538013
    vertex 158.20137989612294 112.73297500722434 66.12464692335622
    vertex 158.2013798961242 114.3531115498843 66.59917393025324
  endloop
endfacet
facet normal 1.0 -8.001932449985816e-13 4.845929381966067e-16
  outer loop
    vertex 158.201379896129 120.34173221786013 100.01102625538013
    vertex 158.2013798961242 114.3531115498843 66.59917393025324
    vertex 158.2013798961256 116.09173221786043 66.76102625538012
  endloop
endfacet
facet normal 1.0 -8.001932449985816e-13 4.845929381966067e-16
  outer loop
    vertex 158.201379896129 120.34173221786013 100.01102625538013
    vertex 158.2013798961256 116.09173221786043 66.76102625538012
    vertex 158.201379896127 117.8303528858365 66.59917393025324
  endloop
endfacet
facet normal 1.0 -8.001932449985816e-13 4.845929381966067e-16
  outer loop
    vertex 158.201379896129 120.34173221786013 100.01102625538013
    vertex 158.201379896127 117.8303528858365 66.59917393025324
    vertex 158.20137989612832 119.45048942849651 66.12464692335622
  endloop
endfacet
facet normal 1.0 -8.001932449985816e-13 4.845929381966067e-16
  outer loop
    vertex 158.201379896129 120.34173221786013 100.01102625538013
    vertex 158.20137989612832 119.45048942849651 66.12464692335622
    vertex 158.201379896129 120.3417322178602 65.64107452431008
  endloop
endfacet
facet normal 0.09229595564117934 -0.09229595564133979 -0.99144486137381
  outer loop
    vertex 160.3263798961275 118.21673221785888 57.26102625538016
    vertex 159.94000056410184 116.09173221785909 57.42287858050712
    vertex 158.20137989612553 116.09173221786048 57.26102625538016
  endloop
endfacet
facet normal 0.09229595564117934 -0.09229595564133979 -0.99144486137381
  outer loop
    vertex 159.94000056410184 116.09173221785909 57.42287858050712
    vertex 160.3263798961275 118.21673221785888 57.26102625538016
    vertex 161.19569023011485 117.34742188387011 57.42287858050707
  endloop
endfacet
facet normal -0.4304593345765289 0.4304593345772145 -0.7933533402912436
  outer loop
    vertex 157.95137989612937 120.5917322178608 58.65226904474406
    vertex 154.84262268548957 116.09173221786317 57.89740558740414
    vertex 153.45137989612553 116.0917322178643 58.65226904474415
  endloop
endfacet
facet normal -0.4304593345765289 0.4304593345772145 -0.7933533402912436
  outer loop
    vertex 154.84262268548957 116.09173221786317 57.89740558740414
    vertex 157.95137989612937 120.5917322178608 58.65226904474406
    vertex 158.64700129081078 119.89611082317828 57.89740558740409
  endloop
endfacet
facet normal -0.27059805007291504 0.27059805007334536 -0.9238795325112683
  outer loop
    vertex 158.64700129081078 119.89611082317828 57.89740558740409
    vertex 156.46275922814948 116.09173221786189 57.42287858050707
    vertex 154.84262268548957 116.09173221786317 57.89740558740414
  endloop
endfacet
facet normal -0.27059805007291504 0.27059805007334536 -0.9238795325112683
  outer loop
    vertex 156.46275922814948 116.09173221786189 57.42287858050707
    vertex 158.64700129081078 119.89611082317828 57.89740558740409
    vertex 159.45706956214013 119.08604255184763 57.42287858050707
  endloop
endfacet
facet normal 0.27059805007289817 -0.270598050073333 0.9238795325112769
  outer loop
    vertex 162.00575850144418 116.53735361253948 66.12464692335622
    vertex 158.2013798961242 114.3531115498843 66.59917393025324
    vertex 158.20137989612294 112.73297500722434 66.12464692335622
  endloop
endfacet
facet normal 0.27059805007289817 -0.270598050073333 0.9238795325112769
  outer loop
    vertex 158.2013798961242 114.3531115498843 66.59917393025324
    vertex 162.00575850144418 116.53735361253948 66.12464692335622
    vertex 161.19569023011485 117.34742188387011 66.59917393025324
  endloop
endfacet
facet normal 1.0 -7.555622794086503e-13 -3.191015306364476e-16
  outer loop
    vertex 162.45137989612547 116.09173221785697 24.011026255380184
    vertex 162.45137989612473 115.09173221785697 59.1130287940191
    vertex 162.45137989612465 115.09173221785697 24.011026255380184
  endloop
endfacet
facet normal 1.0 -7.555622794086503e-13 -3.191015306364476e-16
  outer loop
    vertex 162.45137989612473 115.09173221785697 59.1130287940191
    vertex 162.45137989612547 116.09173221785697 24.011026255380184
    vertex 162.45137989612508 115.59173221785693 58.65226904474406
  endloop
endfacet
facet normal 1.0 -7.555622794086503e-13 -3.191015306364476e-16
  outer loop
    vertex 162.45137989612508 115.59173221785693 58.65226904474406
    vertex 162.45137989612547 116.09173221785697 24.011026255380184
    vertex 162.45137989612542 116.09173221785699 58.380977986450276
  endloop
endfacet
facet normal 8.056333378192448e-13 1.0 -2.541109250295389e-15
  outer loop
    vertex 152.9513798961253 116.0917322178647 59.113028794019556
    vertex 162.45137989612547 116.09173221785697 24.011026255380184
    vertex 152.95137989612542 116.09173221786459 24.011026255380184
  endloop
endfacet
facet normal 8.056333378192448e-13 1.0 -2.541109250295389e-15
  outer loop
    vertex 162.45137989612547 116.09173221785697 24.011026255380184
    vertex 152.9513798961253 116.0917322178647 59.113028794019556
    vertex 153.45137989612553 116.0917322178643 58.65226904474415
  endloop
endfacet
facet normal 8.056333378192448e-13 1.0 -2.541109250295389e-15
  outer loop
    vertex 162.45137989612547 116.09173221785697 24.011026255380184
    vertex 153.45137989612553 116.0917322178643 58.65226904474415
    vertex 154.84262268548957 116.09173221786317 57.89740558740414
  endloop
endfacet
facet normal 8.056333378192448e-13 1.0 -2.541109250295389e-15
  outer loop
    vertex 162.45137989612547 116.09173221785697 24.011026255380184
    vertex 154.84262268548957 116.09173221786317 57.89740558740414
    vertex 156.46275922814948 116.09173221786189 57.42287858050707
  endloop
endfacet
facet normal 8.056333378192448e-13 1.0 -2.541109250295389e-15
  outer loop
    vertex 162.45137989612547 116.09173221785697 24.011026255380184
    vertex 156.46275922814948 116.09173221786189 57.42287858050707
    vertex 158.20137989612553 116.09173221786048 57.26102625538016
  endloop
endfacet
facet normal 8.056333378192448e-13 1.0 -2.541109250295389e-15
  outer loop
    vertex 162.45137989612547 116.09173221785697 24.011026255380184
    vertex 161.56013710676183 116.09173221785778 57.89740558740414
    vertex 162.45137989612542 116.09173221785699 58.380977986450276
  endloop
endfacet
facet normal 8.056333378192448e-13 1.0 -2.541109250295389e-15
  outer loop
    vertex 161.56013710676183 116.09173221785778 57.89740558740414
    vertex 162.45137989612547 116.09173221785697 24.011026255380184
    vertex 159.94000056410184 116.09173221785909 57.42287858050712
  endloop
endfacet
facet normal 8.056333378192448e-13 1.0 -2.541109250295389e-15
  outer loop
    vertex 159.94000056410184 116.09173221785909 57.42287858050712
    vertex 162.45137989612547 116.09173221785697 24.011026255380184
    vertex 158.20137989612553 116.09173221786048 57.26102625538016
  endloop
endfacet
facet normal 0.09229595564120167 -0.09229595564135 0.9914448613738072
  outer loop
    vertex 157.70137989612516 115.59173221786078 59.31102625538014
    vertex 159.83224560101888 118.71086651296827 59.40302652439968
    vertex 157.20724560101658 116.08586651297017 59.40302652439968
  endloop
endfacet
facet normal 0.09229595564120167 -0.09229595564135 0.9914448613738072
  outer loop
    vertex 159.83224560101888 118.71086651296827 59.40302652439968
    vertex 157.70137989612516 115.59173221786078 59.31102625538014
    vertex 160.3263798961275 118.21673221785888 59.31102625538014
  endloop
endfacet
facet normal 0.09229595564115683 -0.09229595564131221 0.9914448613738147
  outer loop
    vertex 161.19569023011485 117.34742188387011 66.59917393025324
    vertex 158.2013798961256 116.09173221786043 66.76102625538012
    vertex 158.2013798961242 114.3531115498843 66.59917393025324
  endloop
endfacet
facet normal 0.09229595564115683 -0.09229595564131221 0.9914448613738147
  outer loop
    vertex 158.2013798961256 116.09173221786043 66.76102625538012
    vertex 161.19569023011485 117.34742188387011 66.59917393025324
    vertex 160.3263798961275 118.21673221785888 66.76102625538016
  endloop
endfacet
facet normal 7.555622794086503e-13 1.0 2.940710004649125e-16
  outer loop
    vertex 157.201379896129 120.34173221786092 100.01102625538013
    vertex 157.7013798961287 120.34173221786051 65.36978346601622
    vertex 157.201379896129 120.3417322178609 64.9090237167414
  endloop
endfacet
facet normal 7.555622794086503e-13 1.0 2.940710004649125e-16
  outer loop
    vertex 157.7013798961287 120.34173221786051 65.36978346601622
    vertex 157.201379896129 120.34173221786092 100.01102625538013
    vertex 158.201379896129 120.3417322178602 65.64107452431008
  endloop
endfacet
facet normal 7.555622794086503e-13 1.0 2.940710004649125e-16
  outer loop
    vertex 158.201379896129 120.3417322178602 65.64107452431008
    vertex 157.201379896129 120.34173221786092 100.01102625538013
    vertex 158.201379896129 120.34173221786013 100.01102625538013
  endloop
endfacet
facet normal -0.7010573846494121 0.7010573846505388 -0.13052619222007783
  outer loop
    vertex 159.54551419123268 113.7475979227503 62.709837677156955
    vertex 162.23556820532963 116.30754390865366 62.01102625538016
    vertex 159.61056820532733 113.68254390865556 62.01102625538016
  endloop
endfacet
facet normal -0.7010573846494121 0.7010573846505388 -0.13052619222007783
  outer loop
    vertex 162.23556820532963 116.30754390865366 62.01102625538016
    vertex 159.54551419123268 113.7475979227503 62.709837677156955
    vertex 162.170514191235 116.3725979227484 62.709837677156955
  endloop
endfacet
facet normal 0.27059805007284404 -0.27059805007327886 -0.9238795325113085
  outer loop
    vertex 159.3717857415264 119.17132637246148 64.34929484559818
    vertex 157.20724560101658 116.08586651297017 64.61902598636064
    vertex 156.7467857415241 116.5463263724634 64.34929484559818
  endloop
endfacet
facet normal 0.27059805007284404 -0.27059805007327886 -0.9238795325113085
  outer loop
    vertex 157.20724560101658 116.08586651297017 64.61902598636064
    vertex 159.3717857415264 119.17132637246148 64.34929484559818
    vertex 159.83224560101888 118.71086651296827 64.61902598636064
  endloop
endfacet
facet normal -0.27059805007284404 0.27059805007327886 -0.9238795325113085
  outer loop
    vertex 160.82051419123607 117.72259792274949 64.61902598636064
    vertex 158.65597405072626 114.63713806325816 64.34929484559818
    vertex 158.19551419123374 115.09759792275139 64.61902598636064
  endloop
endfacet
facet normal -0.27059805007284404 0.27059805007327886 -0.9238795325113085
  outer loop
    vertex 158.65597405072626 114.63713806325816 64.34929484559818
    vertex 160.82051419123607 117.72259792274949 64.61902598636064
    vertex 161.28097405072856 117.26213806325626 64.34929484559818
  endloop
endfacet
facet normal 0.7010573846494121 -0.7010573846505388 0.13052619222007783
  outer loop
    vertex 158.41719158692533 120.1259205270641 62.01102625538016
    vertex 155.85724560101764 117.43586651297126 61.31221483360336
    vertex 158.48224560101997 120.06086651296935 61.31221483360336
  endloop
endfacet
facet normal 0.7010573846494121 -0.7010573846505388 0.13052619222007783
  outer loop
    vertex 155.85724560101764 117.43586651297126 61.31221483360336
    vertex 158.41719158692533 120.1259205270641 62.01102625538016
    vertex 155.792191586923 117.500920527066 62.01102625538016
  endloop
endfacet
facet normal -0.5609855267964676 0.5609855267973691 -0.608761429008744
  outer loop
    vertex 161.6763798961264 116.86673221785779 63.920214564583844
    vertex 159.3547854725025 113.93832664148078 63.36102625538017
    vertex 159.05137989612408 114.24173221785969 63.920214564583844
  endloop
endfacet
facet normal -0.5609855267964676 0.5609855267973691 -0.608761429008744
  outer loop
    vertex 159.3547854725025 113.93832664148078 63.36102625538017
    vertex 161.6763798961264 116.86673221785779 63.920214564583844
    vertex 161.97978547250483 116.56332664147888 63.36102625538017
  endloop
endfacet
facet normal -0.09229595564120167 0.09229595564135 -0.9914448613738072
  outer loop
    vertex 160.3263798961275 118.21673221785888 64.71102625538018
    vertex 158.19551419123374 115.09759792275139 64.61902598636064
    vertex 157.70137989612516 115.59173221786078 64.71102625538018
  endloop
endfacet
facet normal -0.09229595564120167 0.09229595564135 -0.9914448613738072
  outer loop
    vertex 158.19551419123374 115.09759792275139 64.61902598636064
    vertex 160.3263798961275 118.21673221785888 64.71102625538018
    vertex 160.82051419123607 117.72259792274949 64.61902598636064
  endloop
endfacet
facet normal -0.09229595564117564 0.09229595564132712 -0.9914448613738116
  outer loop
    vertex 159.45706956214013 119.08604255184763 57.42287858050707
    vertex 158.20137989612553 116.09173221786048 57.26102625538016
    vertex 156.46275922814948 116.09173221786189 57.42287858050707
  endloop
endfacet
facet normal -0.09229595564117564 0.09229595564132712 -0.9914448613738116
  outer loop
    vertex 158.20137989612553 116.09173221786048 57.26102625538016
    vertex 159.45706956214013 119.08604255184763 57.42287858050707
    vertex 160.3263798961275 118.21673221785888 57.26102625538016
  endloop
endfacet
facet normal 0.09229595564120167 -0.09229595564135 -0.9914448613738072
  outer loop
    vertex 159.83224560101888 118.71086651296827 64.61902598636064
    vertex 157.70137989612516 115.59173221786078 64.71102625538018
    vertex 157.20724560101658 116.08586651297017 64.61902598636064
  endloop
endfacet
facet normal 0.09229595564120167 -0.09229595564135 -0.9914448613738072
  outer loop
    vertex 157.70137989612516 115.59173221786078 64.71102625538018
    vertex 159.83224560101888 118.71086651296827 64.61902598636064
    vertex 160.3263798961275 118.21673221785888 64.71102625538018
  endloop
endfacet
facet normal 0.0 0.0 -1.0
  outer loop
    vertex 152.95137989612542 116.09173221786459 24.011026255380184
    vertex 162.45137989612465 115.09173221785697 24.011026255380184
    vertex 152.9513798961246 115.09173221786459 24.011026255380184
  endloop
endfacet
facet normal 0.0 0.0 -1.0
  outer loop
    vertex 162.45137989612465 115.09173221785697 24.011026255380184
    vertex 152.95137989612542 116.09173221786459 24.011026255380184
    vertex 162.45137989612547 116.09173221785697 24.011026255380184
  endloop
endfacet
facet normal 0.2705980500728914 -0.2705980500733497 -0.9238795325112739
  outer loop
    vertex 161.19569023011485 117.34742188387011 57.42287858050707
    vertex 161.56013710676183 116.09173221785778 57.89740558740414
    vertex 159.94000056410184 116.09173221785909 57.42287858050712
  endloop
endfacet
facet normal 0.2705980500728914 -0.2705980500733497 -0.9238795325112739
  outer loop
    vertex 161.56013710676183 116.09173221785778 57.89740558740414
    vertex 161.19569023011485 117.34742188387011 57.42287858050707
    vertex 162.00575850144418 116.53735361253948 57.89740558740409
  endloop
endfacet
endsolid BuffaloBot
